<svg xmlns="http://www.w3.org/2000/svg" xmlns:xlink="http://www.w3.org/1999/xlink" width="22" height="22" viewBox="0 0 22 22">
    <defs>
        <path id="a" d="M13.4 3c1.14 0 1.6.76 1.6 2-.04 1.5-.46 2.98-1.08 4.34.88.08 1.78.06 2.68.06 1.499 0 2.399.62 2.399 1.8.02.48-.24.86-.62 1.14l.02.02c.32.74.3 1.46-.42 1.98l.02.02c.32.74.3 1.46-.42 1.98l.02.02c.22.62.18.34.22.84 0 1.1-.8 1.8-2 1.8H13.4c-1.32 0-2.84-.12-4.16-.32-.34-.06-.68-.1-1.04-.18v.1c0 .22-.18.4-.4.4H3.4c-.22 0-.4-.18-.4-.4V9c0-.22.18-.4.4-.4h4.4c.22 0 .4.18.4.4v.06c.88-.52 1.52-1.36 2.16-2.14.16-.22.32-.46.48-.74.22-.38.98-1.92 1.16-2.22.38-.6.8-.96 1.4-.96z"/>
        <path id="b" d="M3.8 9.4v8.8h3.6V9.4z"/>
    </defs>
    <g fill="none" fill-rule="evenodd">
        <g fill-rule="nonzero">
            <use fill="#FFF" fill-rule="evenodd" xlink:href="#a"/>
            <path stroke="#FFF" stroke-width="2" d="M17.546 12.921l.146.146.707-.707-.918.397c.026.06.047.114.065.164zm-.4 2l.146.146.707-.707-.918.397c.026.06.047.114.065.164zm-.41 1.99l.156.156.707-.707-.942.334c.026.076.054.151.08.218zM7.2 18v.6c0-.332.267-.6.6-.6h-.6zM4 18h-.6c.332 0 .6.268.6.6V18zm0-8.4V9c0 .332-.268.6-.6.6H4zm3.2 0h.6a.599.599 0 0 1-.6-.6v.6z"/>
        </g>
        <path fill="#FFF" d="M13.4 3.8c-.8 0-1.2 2-2.4 3.6a10.19 10.19 0 0 1-2.68 2.56l-.12.06v7.64c1.7.42 3.46.48 5.2.54h2.4c.8 0 1.2-.4 1.2-1s-.4-.6-.4-1 .799-.4.799-1-.4-.6-.4-1 .8-.4.8-1-.4-.6-.4-1 .8-.4.8-1-.4-1-1.6-1c-2.8 0-4 0-3.6-.8.44-.88 1.2-2.8 1.2-4.4 0-.8-.18-1.2-.8-1.2z"/>
        <use fill="#FFF" xlink:href="#b"/>
        <path stroke="#4A90E2" stroke-width="2" d="M2.8 8.4h5.6v10.8H2.8V8.4z"/>
    </g>
</svg>
