<svg xmlns="http://www.w3.org/2000/svg" width="24" height="24" viewBox="0 0 24 24">
    <g fill="none" fill-rule="evenodd">
        <path fill="#FFF" d="M12 22c1.163 0 2.113-.899 2.113-2.003H9.88C9.88 21.101 10.837 22 12 22z"/>
        <path stroke="#FFF" stroke-width="2" d="M5 18.262l-.127.227.127-.486v.259zm.145-.26h13.71l-.975-1.743v-5.758c0-2.568-1.833-4.714-4.515-5.323L12.587 5V3.499c0-.235-.28-.499-.587-.499-.308 0-.587.264-.587.499V5l-.778.177C7.952 5.787 6.12 7.932 6.12 10.5v5.758l-.975 1.744zm13.855 0l.127.487-.127-.227v-.26z"/>
    </g>
</svg>
