<svg xmlns="http://www.w3.org/2000/svg" width="40" height="35" viewBox="0 0 40 35">
    <g fill="none" fill-rule="evenodd">
        <path fill="#C1D3E6" d="M18 4a6.99 6.99 0 0 0-7 7c0 3.873 3.127 7 7 7s7-3.127 7-7-3.127-7-7-7M20.723 24.291c0-1.367.31-2.655.838-3.826-1.31-.236-2.548-.364-3.561-.364-4.667 0-14 2.566-14 7.233v2.333h18.445a9.266 9.266 0 0 1-1.722-5.376"/>
        <path fill="#C01111" fill-opacity=".647" d="M33.4 26.693l-.944.94-2.4-2.398-2.402 2.398-.94-.94 2.399-2.4-2.399-2.402.94-.94 2.401 2.398 2.401-2.398.943.94-2.4 2.401 2.4 2.401zm-3.345-9.086a6.678 6.678 0 0 0-6.685 6.685 6.677 6.677 0 0 0 6.685 6.685 6.678 6.678 0 0 0 6.685-6.685 6.68 6.68 0 0 0-6.685-6.685z"/>
    </g>
</svg>
