<svg xmlns="http://www.w3.org/2000/svg" width="24" height="24" viewBox="0 0 24 24">
    <g fill="none" fill-rule="nonzero">
        <path fill="#90A4AE" d="M4 2h16c1.1 0 2 .9 2 2v16c0 1.1-.9 2-2 2H4c-1.1 0-2-.9-2-2V4c0-1.1.9-2 2-2z"/>
        <g fill="#FFF">
            <path d="M9.7 9.8H7.6L7.2 11H6l2.1-5.7h1.1l2.1 5.7h-1.2l-.4-1.2zM8 8.9h1.4l-.7-2.1L8 8.9zM13.9 11V5.3h2c.3 0 .6 0 .9.1.3.1.5.2.7.3.2.1.3.3.4.5.1.2.1.4.1.7v.4c0 .1-.1.2-.1.3 0 .1-.2.2-.3.3-.1.1-.2.2-.4.2.2 0 .3.1.4.2l.3.3c.1.1.1.2.2.4s.1.3.1.4c0 .6-.2 1-.5 1.2-.3.2-.9.4-1.5.4h-2.3zm1.2-3.3h.9c.3 0 .5-.1.7-.2.2-.1.2-.3.2-.5 0-.3-.1-.4-.2-.6-.1-.2-.4-.2-.7-.2h-.8v1.5h-.1zm0 .8V10h1c.2 0 .3 0 .4-.1.1-.1.2-.1.3-.2l.2-.2c.1-.1.1-.2.1-.3v-.3c0-.1-.1-.2-.1-.2s-.2-.1-.3-.2c-.1-.1-.2-.1-.4-.1h-1.2v.1z"/>
        </g>
        <g fill="#FFF">
            <path d="M11 17.1c0 .3-.1.6-.2.8-.1.2-.3.5-.5.6-.2.1-.4.3-.7.4-.3.1-.6.1-.9.1-.4 0-.7-.1-1-.2-.3-.1-.5-.3-.7-.5-.2-.2-.4-.5-.5-.9-.1-.4-.2-.7-.2-1.1v-.4c0-.4.1-.8.2-1.1.1-.3.3-.6.5-.9.2-.3.5-.4.7-.5.2-.1.6-.2 1-.2s.7 0 .9.2c.2.2.5.2.7.4.2.2.3.4.4.6.1.2.2.5.2.8H9.7c0-.2 0-.3-.1-.4-.1-.1-.1-.2-.2-.3-.1-.1-.2-.2-.3-.2-.1 0-.3-.1-.5-.1-.4 0-.7.1-.9.4-.2.3-.3.7-.3 1.3v.4c0 .3 0 .6.1.8.1.2.1.4.2.6.1.2.2.3.4.3s.3.1.5.1.3 0 .5-.1.2-.1.3-.2c.1-.1.2-.2.2-.3 0-.1.1-.3.1-.4H11zM13.7 19v-5.7h1.8c.4 0 .7.1 1.1.2.4.1.6.3.8.6.2.3.4.5.5.9.1.4.2.7.2 1.1v.3c0 .4-.1.8-.2 1.1-.1.3-.3.6-.5.9-.2.3-.5.4-.8.6-.3.2-.7.2-1.1.2h-1.8V19zm1.2-4.7v3.8h.6c.5 0 .8-.2 1.1-.5.3-.3.4-.7.4-1.3V16c0-.6-.1-1-.4-1.3-.3-.3-.6-.4-1.1-.4h-.6z"/>
        </g>
    </g>
</svg>
