<svg xmlns="http://www.w3.org/2000/svg" width="32" height="32" viewBox="0 0 32 32">
    <g fill="none" fill-rule="evenodd" opacity=".5">
        <path d="M0 0h32v32H0V0zm0 0h32v32H0V0zm0 0h32v32H0V0z"/>
        <path fill="#FFF" fill-rule="nonzero" d="M24.8 3H7.2v2.2h17.6V3zM7.2 29.4h17.6v-2.2H7.2v2.2zm17.6-22H7.2C5.99 7.4 5 8.39 5 9.6v13.2c0 1.21.99 2.2 2.2 2.2h17.6c1.21 0 2.2-.99 2.2-2.2V9.6c0-1.21-.99-2.2-2.2-2.2zM16 10.425a2.479 2.479 0 0 1 2.475 2.475A2.479 2.479 0 0 1 16 15.375a2.479 2.479 0 0 1-2.475-2.475A2.479 2.479 0 0 1 16 10.425zM21.5 21.7h-11v-1.65c0-1.837 3.663-2.75 5.5-2.75 1.837 0 5.5.913 5.5 2.75v1.65z"/>
    </g>
</svg>
