<svg xmlns="http://www.w3.org/2000/svg" width="24" height="24" viewBox="0 0 24 24">
    <g fill="none" fill-rule="evenodd" transform="translate(2 2)">
        <circle cx="10" cy="10" r="10" fill="#FF5252" fill-opacity=".992"/>
        <path fill="#FFF" d="M10.61 9.667l2.827-2.828a.673.673 0 0 0 0-.944.665.665 0 0 0-.942 0L9.667 8.725 6.839 5.896a.673.673 0 0 0-.944 0 .665.665 0 0 0 0 .943l2.829 2.828-2.828 2.828a.673.673 0 0 0 0 .943c.262.262.682.26.943 0l2.828-2.829 2.828 2.828c.254.255.683.261.943 0a.665.665 0 0 0 0-.942l-2.829-2.828z"/>
    </g>
</svg>
