<svg xmlns="http://www.w3.org/2000/svg" width="252" height="40" viewBox="0 0 252 40">
    <g fill="none" fill-rule="evenodd">
        <path fill="#57616F" d="M77.88 12.76c-2.6 0-4.56 1.28-5.32 2.8v-1.28c0-.72-.56-1.28-1.28-1.28S70 13.56 70 14.28v16.24c0 .72.56 1.28 1.28 1.28s1.28-.56 1.28-1.28v-9.88c0-3.2 1.36-5.6 5.32-5.6 3.88 0 4.8 2.16 4.8 5.32v10.16c0 .72.56 1.28 1.28 1.28s1.28-.56 1.28-1.28V19.84c0-3.4-1.2-7.08-7.36-7.08zm19.36 0c-5.16 0-8.4 3.04-8.4 9.6S92.08 32 97.24 32c5.2 0 8.4-3.08 8.4-9.64 0-6.56-3.2-9.6-8.4-9.6zm0 16.92c-3.68 0-5.8-2.2-5.8-7.32 0-5.04 2.12-7.28 5.8-7.28 3.68 0 5.8 2.24 5.8 7.28 0 5.12-2.12 7.32-5.8 7.32zm13.4-16.36h-1.56c-.68 0-1.2.52-1.2 1.2 0 .68.52 1.2 1.2 1.2h1.56v11.04c0 2.92 1.72 5.04 4.88 5.04.68 0 1.24-.52 1.24-1.2 0-.68-.56-1.2-1.24-1.2-1.36 0-2.32-.92-2.32-2.64V15.72h2.6c.68 0 1.2-.52 1.2-1.2 0-.68-.52-1.2-1.2-1.2h-2.6v-4.2c0-.68-.56-1.28-1.28-1.28-.68 0-1.28.6-1.28 1.28v4.2zm12.68.96c0-.72-.56-1.28-1.28-1.28s-1.28.56-1.28 1.28v16.24c0 .72.56 1.28 1.28 1.28s1.28-.56 1.28-1.28V14.28zm-1.28-5.04c.96 0 1.52-.56 1.52-1.52 0-1.16-.56-1.6-1.52-1.6s-1.52.44-1.52 1.6c0 .96.56 1.52 1.52 1.52zm5.28 13.12c0 6.56 3.08 9.64 8.24 9.64 3.24 0 5.16-1.44 6.04-2.16.4-.36.52-.64.52-1 0-.64-.52-1.16-1.16-1.16-.28 0-.48.08-.76.28-.92.68-2.32 1.72-4.64 1.72-3.68 0-5.64-2.32-5.64-7.32 0-4.92 1.96-7.28 5.64-7.28 2.64 0 3.72 1.2 4.32 1.88.28.32.56.48.96.48.64 0 1.16-.48 1.16-1.16 0-.28-.08-.48-.28-.76-.64-.88-2.6-2.76-6.16-2.76-5.16 0-8.24 3.04-8.24 9.6zm17.64 0c0 6.72 3.32 9.64 8.64 9.64 3.56 0 5.64-1.64 6.24-2.24.24-.24.44-.48.44-.92 0-.64-.52-1.16-1.16-1.16-.32 0-.48.08-.72.24-1.12.84-2.48 1.72-4.8 1.72-3.76 0-6.04-2.56-6.04-6.52h11.68c1.6 0 1.6-1.4 1.6-2.56 0-2.72-1.24-7.8-7.64-7.8-5.2 0-8.24 3.44-8.24 9.6zm13.36-1.48h-10.76c.24-3.56 2.16-5.8 5.64-5.8 4.12 0 5.12 2.92 5.12 5.8zm10.2-2.4s1.56-2.04 3.96-2.04c2.72 0 4.28 2 4.28 5.96 0 3.92-1.52 5.92-4.28 5.92-2.32 0-3.96-1.56-3.96-4.32v-5.52zm4.4-5.72c-1.92 0-3.6.8-4.4 1.6v-9.2c0-1.2-.96-2.16-2.16-2.16-1.2 0-2.16.96-2.16 2.16V24c0 5.32 3.44 8 8.28 8 5.4 0 8.56-3.08 8.56-9.6s-3.08-9.64-8.12-9.64zm28 9.64c0-6.56-3.36-9.64-8.76-9.64s-8.76 3.08-8.76 9.64c0 6.52 3.36 9.6 8.76 9.6s8.76-3.08 8.76-9.6zm-4.36 0c0 3.92-1.52 5.92-4.4 5.92-2.88 0-4.4-2-4.4-5.92 0-3.96 1.52-5.96 4.4-5.96 2.88 0 4.4 2 4.4 5.96zm14.68-5.8c2.32 0 3.64 1.2 3.64 3v.72h-5.24c-3.48 0-6.48 1.92-6.48 5.64 0 3.6 2.6 6.04 6.52 6.04 2.4 0 4.16-.6 5.24-2.32 0 1.16.96 2.12 2.12 2.12 1.16 0 2.12-.96 2.12-2.12V19.44c0-4.24-2.96-6.68-7.92-6.68-3.44 0-5.44 1.32-6.56 2.56-.36.4-.52.88-.52 1.32 0 1.04.84 1.88 1.88 1.88.48 0 .8-.12 1.2-.4 1-.72 2.24-1.52 4-1.52zm-.44 11.8c-2.24 0-3.32-.92-3.32-2.44 0-1.44.96-2.28 2.72-2.28h4.68v1.12c0 2.24-1.96 3.6-4.08 3.6zm16.48-13.24c0-1.2-.96-2.16-2.16-2.16-1.2 0-2.16.96-2.16 2.16v14.48c0 1.2.96 2.16 2.16 2.16 1.2 0 2.16-.96 2.16-2.16v-8.32c0-2.68 1.56-4.44 4.32-4.44 1.12 0 2.04-.92 2.04-2.04s-.92-2.04-2.04-2.04c-1.68 0-3.56 1-4.32 2.56v-.2zM247.6 24c0 2.76-1.64 4.32-3.96 4.32-2.76 0-4.28-2-4.28-5.92 0-3.96 1.56-5.96 4.28-5.96 2.4 0 3.96 2.04 3.96 2.04V24zm-4.4-11.24c-5.04 0-8.12 3.12-8.12 9.64 0 6.52 3.16 9.6 8.56 9.6 4.84 0 8.28-2.68 8.28-8V5.16c0-1.2-.96-2.16-2.16-2.16-1.2 0-2.16.96-2.16 2.16v9.2c-.8-.8-2.48-1.6-4.4-1.6z"/>
        <g transform="translate(-10 -12)">
            <rect width="8" height="20" x="10" y="12" fill="#2D7DD2" rx="4"/>
            <rect width="8" height="40" x="22" y="12" fill="#2D7DD2" rx="4"/>
            <path fill="#2ECC71" d="M46 36a4 4 0 0 1 8 0v12a4 4 0 0 1-8 0V36z"/>
            <rect width="8" height="40" x="34" y="12" fill="#2ECC71" rx="4"/>
        </g>
    </g>
</svg>
