<?xml version="1.0" encoding="UTF-8" standalone="no"?>
<svg width="15px" height="15px" viewBox="0 0 15 15" version="1.1" xmlns="http://www.w3.org/2000/svg" xmlns:xlink="http://www.w3.org/1999/xlink">
    <!-- Generator: Sketch 48.2 (47327) - http://www.bohemiancoding.com/sketch -->
    <title>quiz_icn</title>
    <desc>Created with Sketch.</desc>
    <defs></defs>
    <g id="Boards_icons" stroke="none" stroke-width="1" fill="none" fill-rule="evenodd" transform="translate(-528.000000, -88.000000)">
        <g id="quiz_icn" transform="translate(526.000000, 86.000000)">
            <g id="Group-54">
                <g transform="translate(2.000000, 2.000000)">
                    <path d="M1.67484211,2.62168421 L2.67915789,1.61368421 L3.88536842,2.82357895 L2.94736842,3.76452632 L1.67484211,2.62315789 L1.67484211,2.62168421 Z M6.69789474,0 L8.03747368,0 L8.03747368,1.94968421 L6.69789474,1.94968421 L6.69789474,0 Z M2.00936842,7.99989474 L0,7.99989474 L0,6.65515789 L2.00936842,6.65515789 L2.00936842,7.99989474 Z M12.7274737,7.99989474 L12.7274737,6.65515789 L14.7368421,6.65515789 L14.7368421,7.99989474 L12.7274737,7.99989474 Z M10.8514737,2.82357895 L12.0576842,1.61368421 L12.9949474,2.55463158 L11.7894737,3.76452632 L10.8514737,2.82357895 Z" id="Shape" fill="#90A4AE" fill-rule="nonzero"></path>
                    <path d="M9.37778947,10.7998947 L9.37778947,14 L5.35905263,14 L5.35905263,10.7998947 C4.15284211,10.1330526 3.34894737,8.80010526 3.34894737,7.33305263 C3.34894737,5.13357895 5.15789474,3.33347368 7.36842105,3.33347368 C9.57894737,3.33347368 11.3878947,5.13357895 11.3878947,7.33305263 C11.3878947,8.79936842 10.584,10.1330526 9.37778947,10.7998947 Z" id="Shape" stroke="#90A4AE" stroke-width="1.818"></path>
                </g>
            </g>
        </g>
    </g>
</svg>