<svg xmlns="http://www.w3.org/2000/svg" xmlns:xlink="http://www.w3.org/1999/xlink" width="24" height="24" viewBox="0 0 24 24">
    <defs>
        <path id="a" d="M5.679 2H1.99C.898 2 0 2.893 0 3.994v12.012C0 17.106.891 18 1.99 18h16.02c1.092 0 1.99-.893 1.99-1.994V3.994C20 2.894 19.109 2 18.01 2h-3.064l-.02-.068C14.623.864 13.477 0 12.367 0H8.259c-1.107 0-2.255.865-2.56 1.932L5.678 2z"/>
    </defs>
    <g fill="none" fill-rule="evenodd" transform="translate(2 3)">
        <use fill="#FFF" xlink:href="#a"/>
        <path stroke="#FFF" stroke-width="2" d="M6.66 2.206L6.433 3H1.99A.997.997 0 0 0 1 3.994v12.012c0 .548.445.994.99.994h16.02c.542 0 .99-.448.99-.994V3.994A.994.994 0 0 0 18.01 3h-3.818l-.227-.794C13.783 1.57 13.03 1 12.367 1H8.258c-.661 0-1.416.57-1.598 1.206z"/>
        <circle cx="10" cy="10" r="3" stroke="#2D7DD2" stroke-width="2"/>
    </g>
</svg>
