<svg xmlns="http://www.w3.org/2000/svg" width="32" height="32" viewBox="0 0 32 32">
    <g fill="none" fill-rule="evenodd">
        <path d="M0 0h32v32H0z"/>
        <path fill="#FFF" d="M18.996 9.571h7.722c.446 0 .607.047.77.134.163.087.291.215.378.378.088.163.134.325.134.77v14.58c0 .445-.046.607-.134.77a.909.909 0 0 1-.378.378c-.163.087-.324.133-.77.133h-7.722c-.446 0-.607-.046-.77-.133a.909.909 0 0 1-.378-.378c-.087-.163-.134-.325-.134-.77v-14.58c0-.445.047-.607.134-.77a.909.909 0 0 1 .378-.378c.163-.087.324-.134.77-.134zm1.645 12.572c-.223 0-.304.023-.385.067a.454.454 0 0 0-.19.189c-.043.081-.066.162-.066.385v1.004c0 .222.023.303.067.385a.454.454 0 0 0 .189.189c.081.043.162.067.385.067h4.432c.223 0 .304-.024.385-.067a.454.454 0 0 0 .19-.19c.043-.08.066-.162.066-.384v-1.004c0-.223-.023-.304-.066-.385a.454.454 0 0 0-.19-.19c-.081-.043-.162-.066-.385-.066h-4.432zM5.281 5h7.723c.446 0 .607.046.77.134.163.087.291.215.378.378.087.163.134.324.134.77V20.86c0 .446-.047.607-.134.77a.909.909 0 0 1-.378.378c-.163.087-.324.134-.77.134H5.282c-.446 0-.607-.047-.77-.134a.909.909 0 0 1-.378-.378c-.088-.163-.134-.324-.134-.77V6.28c0-.445.046-.606.134-.77a.909.909 0 0 1 .378-.377c.163-.088.324-.134.77-.134zm1.646 2.286c-.223 0-.304.023-.385.066a.454.454 0 0 0-.19.19c-.043.081-.066.162-.066.385V8.93c0 .223.023.304.066.386a.454.454 0 0 0 .19.189c.081.043.162.066.385.066h4.432c.223 0 .304-.023.385-.066a.454.454 0 0 0 .19-.19c.043-.08.066-.162.066-.385V7.927c0-.223-.023-.304-.067-.385a.454.454 0 0 0-.189-.19c-.081-.043-.162-.066-.385-.066H6.927z"/>
    </g>
</svg>
