<svg xmlns="http://www.w3.org/2000/svg" width="22" height="22" viewBox="0 0 22 22">
    <g fill="#4A90E2" fill-rule="nonzero" opacity=".5">
        <path d="M12.134 4.3c.55.134 1.064.32 1.534.61C15.42 6 16.316 7.581 16.335 9.645c.013 1.335.006 2.674 0 4.01a3.167 3.167 0 0 0 .38 1.561c.33.614.646 1.237.965 1.853.144.278.035.457-.275.457H4.531c-.284 0-.393-.172-.259-.431.323-.63.645-1.259.978-1.882.258-.485.38-.997.377-1.546-.007-1.364-.02-2.725.003-4.09.035-2.028.913-3.593 2.642-4.667a4.577 4.577 0 0 1 1.367-.562c.163-.038.198-.105.195-.255-.003-.141.01-.291.051-.425a.947.947 0 0 1 .882-.649c.144-.006.287-.006.431 0 .524.016.93.431.94.955 0 .109-.004.208-.004.326zM3.863 9.98c-.026-.565-.035-1.278.108-1.984.218-1.08.649-2.044 1.467-2.81.035-.033.07-.068.108-.094.106-.073.214-.073.304.02.096.099.093.214.006.316-.086.099-.188.185-.28.284-.653.697-1.014 1.534-1.154 2.463-.074.483-.083.975-.093 1.463-.013.655 0 1.31 0 1.965 0 .182-.092.284-.233.284-.14 0-.23-.102-.233-.284-.003-.495 0-.987 0-1.623zM18.172 10.127v1.39c0 .064 0 .128-.016.192-.025.111-.102.172-.22.172-.115 0-.192-.06-.22-.172-.016-.061-.016-.128-.016-.192.003-.71.01-1.415.012-2.125.007-1.009-.175-1.98-.667-2.875-.205-.37-.464-.7-.77-.99-.032-.029-.064-.058-.093-.09-.086-.102-.102-.21-.016-.319.08-.099.22-.115.326-.016.17.153.332.316.48.489.673.811 1.021 1.763 1.14 2.798.064.575.057 1.157.083 1.735-.004.003-.013.003-.023.003zM9.633 17.967h2.731c-.022.7-.677 1.275-1.4 1.255-.712-.016-1.338-.62-1.331-1.255zM2.026 9.003c.025-.876.194-1.722.568-2.52.02-.046.042-.087.064-.129.09-.153.217-.207.342-.14.125.067.153.201.073.36-.421.838-.578 1.732-.584 2.659 0 .07.003.137-.007.207-.016.135-.095.218-.233.218-.128 0-.21-.08-.22-.208-.01-.147-.003-.297-.003-.447zM19.978 9.012c0 .128.006.256 0 .384-.01.166-.106.268-.24.265-.134-.003-.214-.109-.23-.275-.042-.498-.048-1.003-.147-1.489-.093-.447-.281-.878-.438-1.313-.044-.124-.08-.236.03-.338.114-.109.29-.074.37.09.115.232.223.472.31.718.22.636.329 1.29.345 1.958z"/>
    </g>
</svg>
