<svg xmlns="http://www.w3.org/2000/svg" width="20" height="20" viewBox="0 0 20 20">
    <g fill="#4A90E2" fill-rule="evenodd">
        <path d="M10.977 6h2.37a.476.476 0 0 0 .338-.815l-2.37-2.37a.477.477 0 0 0-.815.338v2.37c0 .264.213.477.477.477z"/>
        <path fill-rule="nonzero" d="M16.5 10h-2V7.477A.477.477 0 0 0 14.023 7h-3.562a.96.96 0 0 1-.961-.961V2.477A.477.477 0 0 0 9.023 2h-5.54C2.663 2 2 2.663 2 3.482v13.035C2 17.337 2.663 18 3.482 18h9.535c.65 0 1.195-.42 1.396-1H16.5c.816 0 1.5-.684 1.5-1.5v-4.05c0-.816-.684-1.45-1.5-1.45zm.5 5.513a.505.505 0 0 1-.5.487h-10v-5h10c.264 0 .5.199.5.463v4.05z"/>
        <path d="M7.7 11.7h1.325c.775 0 1.277.561 1.25 1.4 0 .823-.502 1.346-1.25 1.346h-.4v.989H7.7V11.7zm.908 1.918h.417c.22 0 .369-.219.369-.545 0-.315-.15-.529-.369-.529h-.417v1.074zm2.006-1.913h1.234c.94 0 1.571.738 1.571 1.85.01 1.132-.614 1.885-1.57 1.885h-1.235v-3.735zm.924 2.854h.3c.39 0 .651-.396.651-.994 0-.588-.261-.983-.652-.983h-.299v1.977zm3.213-.326v1.207h-.924V11.7h2.009v.85h-1.085v.828h.946v.855h-.946z"/>
    </g>
</svg>
