<svg xmlns="http://www.w3.org/2000/svg" width="24" height="24" viewBox="0 0 24 24">
    <g fill="none" fill-rule="evenodd">
        <g stroke="#43484E" stroke-width="2">
            <path d="M15 11a3 3 0 1 0 0-6 3 3 0 0 0 0 6zM21 18.231c0-.048-.003-.096-.008-.144a.445.445 0 0 0 .066-.053.37.37 0 0 0-.057.175zm-.008-.144C20.835 16.487 18.28 15 15 15s-5.835 1.487-5.992 3.087c.024.017.055.036.091.057.272.156.72.31 1.306.44 1.197.268 2.858.416 4.595.416 1.737 0 3.398-.148 4.595-.415.586-.131 1.034-.285 1.306-.44.036-.022.067-.041.091-.058zM9 18.23a1.578 1.578 0 0 0-.001-.022zm-.059-.197a.121.121 0 0 0 .009.008z"/>
        </g>
        <path fill="#2D7DD2" d="M7.11 10.181V8L11 11.82l-3.89 3.816V13.4c-2.779 0-4.72.871-6.11 2.78.553-2.726 2.222-5.454 6.11-6z"/>
    </g>
</svg>
