<svg xmlns="http://www.w3.org/2000/svg" width="36" height="36" viewBox="0 0 36 36">
    <g fill="none" fill-rule="evenodd">
        <path fill="#8DC84C" d="M30.205 9.724L22.757 2H8.266a2 2 0 0 0-2 2v28a2 2 0 0 0 2 2h19.939a2 2 0 0 0 2-2V9.724z"/>
        <path fill="#EDFFD9" fill-rule="nonzero" d="M22.757 2v5.448a2 2 0 0 0 2 2h5.448L22.757 2z"/>
        <path fill="#FFF" fill-rule="nonzero" d="M23.82 14.28a.183.183 0 0 0-.198-.028l-11.87 5.515a.183.183 0 0 0-.003.33l3.36 1.649c.061.03.134.023.19-.018l3.265-2.44-2.563 2.636a.183.183 0 0 0-.052.142l.256 3.324a.183.183 0 0 0 .32.106l1.783-2.066 2.204 1.053a.183.183 0 0 0 .254-.11l3.108-9.9a.183.183 0 0 0-.054-.192z"/>
    </g>
</svg>
