<svg xmlns="http://www.w3.org/2000/svg" xmlns:xlink="http://www.w3.org/1999/xlink" width="40" height="35" viewBox="0 0 40 35">
    <defs>
        <path id="a" d="M.7.623h13.376V14H.7z"/>
    </defs>
    <g fill="none" fill-rule="evenodd">
        <path fill="#C1D3E6" d="M17 4a6.99 6.99 0 0 0-7 7c0 3.873 3.127 7 7 7s7-3.127 7-7-3.127-7-7-7M19.723 24.291c0-1.367.31-2.655.838-3.826-1.31-.236-2.548-.364-3.561-.364-4.667 0-14 2.566-14 7.233v2.333h18.445a9.266 9.266 0 0 1-1.722-5.376"/>
        <g transform="translate(21.667 17.122)">
            <mask id="b" fill="#fff">
                <use xlink:href="#a"/>
            </mask>
            <path fill="#1EB390" d="M6.052 10.656L2.706 7.31l.945-.943 2.401 2.394 5.077-5.075.943.95-6.02 6.02zM7.389.623A6.69 6.69 0 0 0 .699 7.31a6.694 6.694 0 0 0 6.69 6.692 6.69 6.69 0 0 0 0-13.38z" mask="url(#b)"/>
        </g>
    </g>
</svg>
