<svg xmlns="http://www.w3.org/2000/svg" width="140" height="138" viewBox="0 0 140 138">
    <g fill="none" fill-rule="evenodd">
        <path fill="#F7FAFD" d="M7.037 94.016c-6.884-9.456-21.57-32.19 33.797-79.742C56.874 2.09 70.848-3.305 85.147 2.09c9.533 3.597 12.073 10.765 7.62 21.505-.83 13.41 10.106 16.763 32.809 10.058 34.054-10.058-.603 49.65-17.984 68.336-17.382 18.687-30.259 27.11-48.097 33.995-11.891 4.59-20.391 1.338-25.5-9.756-5.401-19.607-23.634-26.905-26.958-32.213z"/>
        <g transform="translate(8 21)">
            <rect width="105" height="90" x="1" y="1" fill="#FFF" stroke="#EEF1F5" stroke-width="2" rx="6"/>
            <path fill="#F8F8F8" d="M64.05 56.798v4.19c0 3.724 2.62 6.4 7.861 8.03C65.873 73.673 59.721 76 53.456 76 47.19 76 41.038 73.673 35 69.018c5.282-1.63 7.902-4.306 7.86-8.03-.061-5.586-.02-8.867-.061-18.438-4.898-6.485-4.584-10.838-1.906-13.9 5.983-6.836 17.12-9.09 33.41-6.763 1.52 16.756.552 27.578-2.905 32.468-1.48 2.094-3.93 2.909-7.348 2.443z"/>
            <path fill="#E6E6E6" d="M64 57c-4.61-.556-8.276-1.889-11-4 2.305 4.111 5.971 6.778 11 8v-4z" opacity=".6" style="mix-blend-mode:multiply"/>
            <path fill="#EEF1F5" fill-rule="nonzero" d="M90.813 80.153C93.007 84.356 94.737 88.305 96 92H13c1.264-3.696 2.993-7.645 5.188-11.847 2.194-4.203 9.698-8.253 22.513-12.15 3.705 7.165 24.038 7.164 27.588-.003 12.82 3.898 20.329 7.95 22.523 12.153zM47.318 31.012c-1.03-.933-2.28-1.561-4.047-.591-4.19 2.298-1.019 11.111 2.702 11.111.972 0 1.454 3.22-2.868 5.468 0-3.587-5.178-12.47-5.63-20.558-5.211-2.048-3.917-10.244-.339-10.244-.572-7.513 10.823-11.393 15.235-7.082 4.487-5.677 15.813-2.773 16.497 2.152 7.788-4.39 12.908 8.229 5.615 13.126-3 2.014-10.02 2.782-20.153 2.782-1.53 0-2.387.401-1.96 2.398.83 3.87-1.094 6.307-5.052 1.438z"/>
        </g>
        <rect width="35.667" height="35.667" x="98.167" y="6.167" fill="#FFF" stroke="#424242" rx="17.833"/>
        <g fill="#FFF" stroke="#2ECC71" transform="matrix(-1 0 0 1 124 14)">
            <rect width="15" height="3" x=".5" y="3.5" rx="1.5"/>
            <path d="M2 7v12c0 .552.448 1 1 1h10c.552 0 1-.448 1-1V7h0H2zM6 3V2c0-1.105.895-2 2-2s2 .895 2 2v1h0-4zM5 9v7M8 9v7M11 9v7"/>
        </g>
    </g>
</svg>
