<svg xmlns="http://www.w3.org/2000/svg" width="36" height="36" viewBox="0 0 36 36">
    <g fill="none" fill-rule="evenodd">
        <path fill="#F7524D" d="M30.9 9.673L23.154 2H8a2 2 0 0 0-2 2v27.79a2 2 0 0 0 2 2h20.9a2 2 0 0 0 2-2V9.672z"/>
        <path fill="#FFF" fill-rule="nonzero" d="M22.345 24.121h-8.048a1.11 1.11 0 0 1-1.121-1.096c0-.192.052-.381.15-.547l4.32-7.322a1.13 1.13 0 0 1 1.004-.55c.387.012.744.22.939.55l4.321 7.322c.098.166.15.355.15.547a1.11 1.11 0 0 1-1.121 1.096h-.593z"/>
        <path fill="#525A61" fill-rule="nonzero" d="M18.619 22.903h-.001c-.402 0-.728-.273-.728-.61 0-.336.326-.609.728-.609.401 0 .727.273.727.61 0 .336-.325.608-.726.609zM18.618 20.954c-.402 0-.728-.273-.728-.61v-3.289c0-.336.326-.609.728-.609.401 0 .727.273.727.61v3.288c0 .337-.326.61-.727.61z"/>
        <path fill="#FFCAC9" fill-rule="nonzero" d="M23.265 2v5.673a2 2 0 0 0 2 2h5.91L23.264 2z"/>
    </g>
</svg>
