<svg xmlns="http://www.w3.org/2000/svg" width="22" height="22" viewBox="0 0 22 22">
    <path fill="#000" fill-rule="nonzero" d="M13.4 3c1.14 0 1.6.76 1.6 2-.04 1.5-.46 2.98-1.08 4.34.88.08 1.78.06 2.68.06 1.499 0 2.399.62 2.399 1.8.02.48-.24.86-.62 1.14l.02.02c.32.74.3 1.46-.42 1.98l.02.02c.32.74.3 1.46-.42 1.98l.02.02c.22.62.18.34.22.84 0 1.1-.8 1.8-2 1.8H13.4c-1.32 0-2.84-.12-4.16-.32-.34-.06-.68-.1-1.04-.18v.1c0 .22-.18.4-.4.4H3.4c-.22 0-.4-.18-.4-.4V9c0-.22.18-.4.4-.4h4.4c.22 0 .4.18.4.4v.06c.88-.52 1.52-1.36 2.16-2.14.16-.22.32-.46.48-.74.22-.38.98-1.92 1.16-2.22.38-.6.8-.96 1.4-.96zM3.8 9.4v8.8h3.6V9.4H3.8zm9.6-5.6c-.8 0-1.2 2-2.4 3.6a10.19 10.19 0 0 1-2.68 2.56l-.12.06v7.64c1.7.42 3.46.48 5.2.54h2.4c.8 0 1.2-.4 1.2-1s-.4-.6-.4-1 .799-.4.799-1-.4-.6-.4-1 .8-.4.8-1-.4-.6-.4-1 .8-.4.8-1-.4-1-1.6-1c-2.8 0-4 0-3.6-.8.44-.88 1.2-2.8 1.2-4.4 0-.8-.18-1.2-.8-1.2z" opacity=".5"/>
</svg>
