<svg xmlns="http://www.w3.org/2000/svg" width="156" height="40" viewBox="0 0 156 40">
    <g fill="#FFF" fill-rule="evenodd">
        <path d="M48.975 15.697c-1.568 0-2.75.772-3.209 1.688v-.772a.762.762 0 0 0-.772-.772.762.762 0 0 0-.772.772v9.796c0 .434.338.772.772.772a.762.762 0 0 0 .772-.772v-5.96c0-1.93.82-3.377 3.21-3.377 2.34 0 2.894 1.303 2.894 3.209v6.128c0 .434.338.772.773.772a.762.762 0 0 0 .772-.772v-6.442c0-2.05-.724-4.27-4.44-4.27zm11.678 0c-3.113 0-5.067 1.833-5.067 5.79s1.954 5.815 5.067 5.815c3.136 0 5.066-1.858 5.066-5.815 0-3.957-1.93-5.79-5.066-5.79zm0 10.205c-2.22 0-3.499-1.327-3.499-4.415 0-3.04 1.279-4.391 3.499-4.391s3.498 1.351 3.498 4.391c0 3.088-1.279 4.415-3.498 4.415zm8.082-9.868h-.94a.71.71 0 0 0-.725.724c0 .41.314.724.724.724h.941v6.659c0 1.761 1.038 3.04 2.944 3.04.41 0 .748-.314.748-.724a.731.731 0 0 0-.748-.724c-.82 0-1.4-.555-1.4-1.592v-6.66h1.569a.71.71 0 0 0 .723-.723.71.71 0 0 0-.723-.724h-1.569v-2.533a.777.777 0 0 0-.772-.772.794.794 0 0 0-.772.772v2.533zm7.648.58a.762.762 0 0 0-.772-.773.762.762 0 0 0-.772.772v9.796c0 .434.338.772.772.772a.762.762 0 0 0 .772-.772v-9.796zm-.772-3.04c.58 0 .917-.338.917-.917 0-.7-.338-.966-.917-.966s-.916.266-.916.966c0 .579.337.916.916.916zm3.185 7.913c0 3.957 1.858 5.815 4.97 5.815 1.955 0 3.113-.869 3.644-1.303.24-.217.313-.386.313-.603a.7.7 0 0 0-.7-.7c-.168 0-.289.048-.458.169-.555.41-1.4 1.037-2.799 1.037-2.22 0-3.402-1.4-3.402-4.415 0-2.968 1.183-4.391 3.402-4.391 1.593 0 2.244.724 2.606 1.134.169.193.338.29.58.29.385 0 .699-.29.699-.7 0-.17-.048-.29-.17-.459-.385-.53-1.567-1.664-3.715-1.664-3.112 0-4.97 1.833-4.97 5.79zm10.64 0c0 4.053 2.003 5.815 5.212 5.815 2.147 0 3.402-.99 3.763-1.352.145-.144.266-.289.266-.554a.7.7 0 0 0-.7-.7c-.193 0-.29.048-.434.145-.676.506-1.496 1.037-2.895 1.037-2.268 0-3.644-1.544-3.644-3.933h7.046c.965 0 .965-.844.965-1.544 0-1.64-.748-4.704-4.609-4.704-3.136 0-4.97 2.074-4.97 5.79zm8.059-.893h-6.49c.144-2.147 1.302-3.498 3.401-3.498 2.485 0 3.089 1.761 3.089 3.498zm6.152-1.447s.94-1.23 2.389-1.23c1.64 0 2.581 1.206 2.581 3.594 0 2.365-.917 3.57-2.581 3.57-1.4 0-2.389-.94-2.389-2.605v-3.33zm2.654-3.45c-1.158 0-2.171.482-2.654.965v-5.55c0-.723-.58-1.302-1.303-1.302-.724 0-1.303.579-1.303 1.302v11.364c0 3.21 2.075 4.826 4.995 4.826 3.257 0 5.163-1.858 5.163-5.79 0-3.934-1.858-5.815-4.898-5.815zm16.889 5.814c0-3.957-2.027-5.814-5.284-5.814-3.257 0-5.284 1.857-5.284 5.814 0 3.933 2.027 5.79 5.284 5.79 3.257 0 5.284-1.857 5.284-5.79zm-2.63 0c0 2.365-.917 3.57-2.654 3.57-1.737 0-2.654-1.205-2.654-3.57 0-2.388.917-3.595 2.654-3.595 1.737 0 2.654 1.207 2.654 3.595zm8.855-3.498c1.399 0 2.195.724 2.195 1.81v.434h-3.16c-2.1 0-3.909 1.158-3.909 3.401 0 2.172 1.568 3.644 3.933 3.644 1.447 0 2.509-.362 3.16-1.4 0 .7.58 1.279 1.279 1.279.7 0 1.279-.58 1.279-1.279v-6.176c0-2.558-1.786-4.03-4.777-4.03-2.075 0-3.282.797-3.957 1.545-.217.24-.314.53-.314.796 0 .627.507 1.134 1.134 1.134.29 0 .483-.073.724-.241.603-.435 1.351-.917 2.413-.917zm-.266 7.117c-1.35 0-2.002-.555-2.002-1.472 0-.868.579-1.375 1.64-1.375h2.823v.676c0 1.35-1.182 2.171-2.46 2.171zm9.94-7.986c0-.724-.579-1.303-1.302-1.303-.724 0-1.303.58-1.303 1.303v8.734c0 .724.579 1.303 1.303 1.303.723 0 1.303-.58 1.303-1.303V20.86c0-1.617.94-2.678 2.605-2.678.676 0 1.23-.555 1.23-1.23 0-.676-.554-1.231-1.23-1.231-1.013 0-2.147.603-2.605 1.544v-.12zm12.257 5.332c0 1.665-.99 2.606-2.389 2.606-1.664 0-2.581-1.206-2.581-3.57 0-2.39.94-3.596 2.581-3.596 1.448 0 2.389 1.23 2.389 1.23v3.33zm-2.654-6.78c-3.04 0-4.898 1.882-4.898 5.815 0 3.933 1.906 5.79 5.163 5.79 2.92 0 4.995-1.616 4.995-4.825V11.112c0-.723-.58-1.302-1.303-1.302-.724 0-1.303.579-1.303 1.302v5.55c-.483-.483-1.496-.965-2.654-.965z"/>
        <g transform="translate(2 8)">
            <rect width="4.825" height="12.063" rx="2.413"/>
            <rect width="4.825" height="24.127" x="7.238" rx="2.413"/>
            <path d="M21.714 14.476a2.413 2.413 0 1 1 4.826 0v7.238a2.413 2.413 0 1 1-4.826 0v-7.238z"/>
            <rect width="4.825" height="24.127" x="14.476" rx="2.413"/>
        </g>
    </g>
</svg>
