<svg xmlns="http://www.w3.org/2000/svg" width="32" height="32" viewBox="0 0 32 32">
    <g fill="#2C496B" fill-rule="nonzero">
        <path d="M8.228 18.433c-.082-1.866-1.063-2.177-1.063-2.177.082-1.762.409-2.177.409-2.177l8.586 3.835 8.871-3.835v5.7l-.245.622c-.776 1.348-2.984 2.332-4.006 2.591-1.023.26-3.108.674-7.032.415-3.925-.26-6.174-2.747-6.174-2.747.859-.984.654-2.227.654-2.227z"/>
        <path d="M16.323 8.95l-7.645 3.73 7.42 3.213 13.798-5.855s.859-.934-.204-1.348c-1.063-.415-13.287-5.596-13.287-5.596s-.286-.104-.572 0S2.75 8.674 2.75 8.674s-.709.212-.627.796c.082.585.327.585.327.585l3.162 1.313s-1.445 2.039-1.227 5.044c0 0-.954.483-.899 1.762 0 0-.027 1.175.845 1.52 0 0-.054 3.87-2.807 6.806l2.371 1.486s1.827-.622 2.017-3.628c0 0 0-3.385-.245-4.87 0 0 .654-.553.654-1.417 0 0-.027-1.313-.79-1.658 0 0-.164-3.765 1.99-4.975l8.067-4.145s.818-.311 1.117.276c0-.001.38.966-.382 1.38z"/>
    </g>
</svg>
