<svg xmlns="http://www.w3.org/2000/svg" width="24" height="24" viewBox="0 0 24 24">
    <g fill="none" fill-rule="evenodd">
        <path fill="#2ECC71" d="M13.57 11.424H12V7.128l.016-.706.025-.772c-.26.261-.442.432-.543.513l-.853.686-.757-.945L12.28 4h1.29v7.424zm-4.36 9H4.02v-1.092l1.864-1.884c.552-.565.912-.957 1.082-1.175.169-.219.29-.42.365-.607.075-.186.112-.38.112-.579 0-.298-.082-.52-.246-.665-.165-.146-.384-.218-.658-.218-.288 0-.567.066-.838.198-.27.132-.553.32-.848.563L4 13.955c.366-.312.669-.532.909-.66.24-.13.503-.228.787-.298.284-.069.603-.104.955-.104.464 0 .873.085 1.229.254.355.17.631.407.827.711.197.305.295.654.295 1.046 0 .342-.06.663-.18.963-.12.3-.307.606-.559.921-.252.315-.696.764-1.333 1.346l-.955.899v.07H9.21v1.321zm11.05-5.763c0 .463-.14.858-.421 1.183-.281.325-.676.548-1.184.67v.03c.6.075 1.053.257 1.361.546.308.29.463.68.463 1.17 0 .715-.26 1.271-.777 1.67-.518.397-1.258.596-2.22.596-.805 0-1.52-.134-2.143-.401v-1.336c.288.146.605.264.95.356.345.09.687.137 1.026.137.518 0 .9-.088 1.147-.264.248-.176.371-.46.371-.848 0-.35-.142-.596-.426-.742-.285-.145-.738-.218-1.361-.218h-.564v-1.204h.574c.575 0 .996-.075 1.262-.226.266-.15.398-.409.398-.774 0-.562-.352-.843-1.056-.843-.244 0-.492.04-.744.122a3.634 3.634 0 0 0-.84.421l-.726-1.081c.677-.488 1.484-.732 2.422-.732.768 0 1.375.156 1.82.468.446.311.668.744.668 1.3z"/>
    </g>
</svg>
