<svg xmlns="http://www.w3.org/2000/svg" width="32" height="32" viewBox="0 0 32 32">
    <g fill="none" fill-rule="evenodd">
        <circle cx="16" cy="16" r="16" fill="#2D7DD2" fill-rule="nonzero"/>
        <g fill="#FFF">
            <path d="M11.04.488v3.018l.005.113c.053.483.434.868.916.924l.122.007h3.023v12.709c0 1.104-.895 2-2 2H2c-1.105 0-2-.896-2-2V2.488c0-1.105.895-2 2-2h9.04zM7.784 14.139H3.321c-.424 0-.768.344-.768.768 0 .389.289.71.664.761l.104.007h4.464c.424 0 .768-.344.768-.768 0-.424-.344-.768-.768-.768zm4-3.583H3.321c-.424 0-.768.343-.768.768 0 .388.289.71.664.76l.104.007h8.464c.424 0 .768-.343.768-.767 0-.425-.344-.768-.768-.768zm0-3.584H3.321c-.424 0-.768.344-.768.768 0 .424.344.768.768.768h8.464c.424 0 .768-.344.768-.768 0-.424-.344-.768-.768-.768z" transform="translate(9 6)"/>
            <path d="M11.62 0L16 3.982H12.461c-.464 0-.84-.377-.84-.841V0z" transform="translate(9 6)"/>
        </g>
    </g>
</svg>
