<svg xmlns="http://www.w3.org/2000/svg" width="26" height="26" viewBox="0 0 26 26">
    <path fill="#90A4AE" fill-rule="nonzero" d="M19.195 14.083c.034-.264.058-.529.058-.81 0-.282-.024-.546-.058-.811l1.746-1.365a.417.417 0 0 0 .1-.53l-1.655-2.862c-.1-.182-.323-.248-.505-.182l-2.06.827a6.044 6.044 0 0 0-1.398-.81l-.314-2.193A.403.403 0 0 0 14.703 5h-3.309a.403.403 0 0 0-.405.347l-.314 2.193a6.356 6.356 0 0 0-1.399.81l-2.06-.827a.404.404 0 0 0-.504.182l-1.655 2.863a.408.408 0 0 0 .1.529l1.745 1.365a6.56 6.56 0 0 0-.058.81c0 .274.025.547.058.811l-1.745 1.365a.417.417 0 0 0-.1.53l1.655 2.862c.1.182.323.248.505.182l2.06-.827c.43.33.893.604 1.398.81l.314 2.193a.403.403 0 0 0 .405.347h3.31c.206 0 .38-.148.405-.347l.314-2.192a6.356 6.356 0 0 0 1.398-.811l2.06.827c.19.075.405 0 .505-.182l1.654-2.862a.417.417 0 0 0-.099-.53l-1.746-1.365zm-6.146 2.085a2.899 2.899 0 0 1-2.896-2.895 2.899 2.899 0 0 1 2.896-2.896 2.899 2.899 0 0 1 2.895 2.896 2.899 2.899 0 0 1-2.895 2.895z"/>
</svg>
