<svg xmlns="http://www.w3.org/2000/svg" width="242" height="476" viewBox="0 0 242 476">
    <defs>
        <linearGradient id="a" x1="12.245%" y1="35.802%" y2="80.291%">
            <stop offset="0%" stop-color="#2F2F2F"/>
            <stop offset="12.245%" stop-color="#1D1D1D"/>
            <stop offset="22.959%" stop-color="#2B2B2B"/>
            <stop offset="100%" stop-color="#171717"/>
        </linearGradient>
    </defs>
    <g fill="none" fill-rule="evenodd">
        <path fill="#1E1E1E" d="M237.502 92.5h4.198V62.1h-4.198zM0 167.5h4.198v-75H0z"/>
        <path fill="url(#a)" d="M21.02 6.9a28.12 28.12 0 0 0-1.764.388C10.1 9.116 3.198 17.202 3.198 26.9v420.2c0 9.7 6.903 17.786 16.063 19.613.504.13 1.086.26 1.758.387 20.848 3.963 57.943 6.6 100.23 6.6 42.289 0 79.384-2.637 100.232-6.6a27.523 27.523 0 0 0 1.758-.387c9.16-1.827 16.062-9.913 16.062-19.613V26.9c0-9.698-6.901-17.784-16.057-19.612-.506-.13-1.09-.26-1.764-.388C200.633 2.936 163.54.3 121.25.3S41.867 2.936 21.02 6.9z" transform="translate(0 1)"/>
        <path fill="#515151" d="M120.757 28.502a.5.5 0 0 1-.005-1h.003c.275 0 .497.221.499.496a.498.498 0 0 1-.494.504h-.003m-1.652-.314a.484.484 0 0 1-.188-.038.498.498 0 0 1-.276-.65.502.502 0 0 1 .652-.276.5.5 0 0 1 .273.652.499.499 0 0 1-.461.312m3.297-.026a.499.499 0 0 1-.196-.96.499.499 0 0 1 .39.92.48.48 0 0 1-.194.04m-4.703-.898a.5.5 0 1 1 0 0m6.092-.048a.499.499 0 0 1-.356-.85.496.496 0 0 1 .708-.006.502.502 0 1 1-.352.856m-3.047-.116a.5.5 0 0 1-.004-1h.005a.5.5 0 0 1 .003 1h-.004m-1.457-.378a.5.5 0 1 1-.002-1 .5.5 0 0 1 .002 1m2.908-.022a.5.5 0 1 1 0-1.002.5.5 0 0 1 0 1.002m-5.441-.826a.499.499 0 0 1-.196-.96.5.5 0 1 1 .196.96m7.962-.062a.499.499 0 1 1 0 0m-6.501-.146a.5.5 0 1 1-.001-1 .5.5 0 0 1 0 1m5.037-.038a.5.5 0 1 1 0 0m-1.744-.058a.5.5 0 1 1 .249-.066.485.485 0 0 1-.249.066m-1.586-.008a.502.502 0 0 1-.432-.752.502.502 0 0 1 .683-.18.498.498 0 0 1-.251.932m.833-1.323a.497.497 0 0 1-.433-.252.498.498 0 0 1 .183-.682l.01-.005.003-.001.006-.004a.5.5 0 0 1 .485.874l-.02.01a.504.504 0 0 1-.234.06m-4.342-.011a.5.5 0 0 1-.004-1h.003a.5.5 0 0 1 .005 1h-.004m1.401-.012a.501.501 0 0 1-.004-1h.005a.5.5 0 0 1 .003 1h-.004m4.493-.014a.5.5 0 0 1 0-1h.007a.5.5 0 0 1-.004 1h-.003m-3.175-.018a.5.5 0 1 1 .004 0h-.004m4.5-.014a.5.5 0 0 1-.004-1h.003c.275 0 .499.223.501.498.002.276-.22.5-.496.502h-.004m1.402-.008a.5.5 0 0 1-.005-1h.004a.5.5 0 1 1 .003 1h-.002m-3.507-1.342a.497.497 0 0 1-.43-.752.5.5 0 1 1 .43.752m-1.594-.008a.499.499 0 0 1-.25-.932l.006-.004.007-.004a.502.502 0 0 1 .681.19c.136.24.05.544-.19.68v.002l-.02.01a.488.488 0 0 1-.234.058m-1.743-.054a.502.502 0 0 1-.436-.746.499.499 0 1 1 .87.492.498.498 0 0 1-.434.254m5.044-.04a.5.5 0 1 1 .252-.068.507.507 0 0 1-.252.068m-6.51-.142a.5.5 0 1 1 .464-.312v-.002a.499.499 0 0 1-.464.314m7.971-.062a.5.5 0 1 1-.001-1 .5.5 0 0 1 .001 1m-5.45-.83a.502.502 0 1 1 0-1.004.502.502 0 0 1 0 1.004m2.67-.088a.501.501 0 0 1 .495-.87.5.5 0 0 1-.495.868v.002m-1.22-.316a.5.5 0 0 1-.006-1h.016c.272 0 .496.219.502.492a.502.502 0 0 1-.492.508h-.02m-3.049-.11a.5.5 0 1 1 0 0m6.106-.048a.5.5 0 1 1 0 0m-4.716-.9a.499.499 0 1 1-.002-.998.499.499 0 0 1 .002.998m3.312-.026a.5.5 0 1 1 0 0m-1.666-.316a.5.5 0 0 1-.007-1h.002l.016-.002v.002h.008c.272 0 .494.219.496.494a.497.497 0 0 1-.494.504v.002H120.68m.04-2.188a5.997 5.997 0 0 0-5.995 5.998 5.998 5.998 0 1 0 11.993 0 5.998 5.998 0 0 0-5.997-5.998"/>
        <path fill="#1E1E1E" d="M120.755 27.502h-.003a.5.5 0 1 0 .004 1h.004a.498.498 0 0 0 .494-.504.498.498 0 0 0-.499-.496m-1.65-.315a.502.502 0 0 0-.464.313.498.498 0 0 0 .276.65.499.499 0 0 0 .65-.274.5.5 0 0 0-.462-.689m3.297-.025a.499.499 0 1 0 0 0m-4.703-.898a.498.498 0 0 0-.35.856.492.492 0 0 0 .706-.006.497.497 0 0 0-.006-.706.498.498 0 0 0-.35-.144m6.092-.048c-.129 0-.258.05-.356.15a.499.499 0 0 0 .356.85.502.502 0 0 0 .352-.856.502.502 0 0 0-.352-.144m-7.038-1.342a.5.5 0 1 0 0 1 .5.5 0 0 0 0-1m7.963-.061a.499.499 0 1 0-.002.998.499.499 0 0 0 .002-.998m-8.305-1.585h-.003a.5.5 0 0 0 .004 1h.004a.5.5 0 0 0-.005-1m8.62-.066h-.003a.5.5 0 0 0 .004 1h.003a.5.5 0 0 0-.003-1m-8.308-1.587a.5.5 0 1 0 .464.687v.002a.501.501 0 0 0-.464-.69m7.969-.06a.499.499 0 0 0 .001 1 .5.5 0 0 0-.001-1m-7.046-1.344a.499.499 0 1 0-.002 1 .502.502 0 0 0 .352-.858.503.503 0 0 0-.35-.142m6.103-.048a.5.5 0 1 0 .351.146.494.494 0 0 0-.351-.146m-4.716-.9a.5.5 0 1 0 0 0m3.312-.026a.5.5 0 1 0 .19.038.5.5 0 0 0-.19-.038m-1.654-.318l-.016.002h-.002a.5.5 0 0 0 .006 1h.022v-.002a.497.497 0 0 0 .494-.504.496.496 0 0 0-.496-.494h-.008v-.002M120.745 26.1h-.005a.5.5 0 0 0 .004 1h.004a.5.5 0 0 0-.003-1m-1.457-.377a.5.5 0 1 0-.002 1 .5.5 0 0 0 .002-1m2.907-.023a.5.5 0 1 0 .001 1 .5.5 0 0 0 0-1m-3.982-1.034a.5.5 0 1 0 0 0m5.037-.039a.5.5 0 1 0 .248.067.495.495 0 0 0-.248-.067m-5.437-1.41h-.005a.5.5 0 0 0 .004 1h.004a.5.5 0 0 0-.003-1m5.816-.047h-.003a.5.5 0 0 0 .004 1h.004a.498.498 0 0 0 .496-.502.502.502 0 0 0-.5-.498m-5.442-1.413a.499.499 0 0 0-.246.935.498.498 0 0 0 .68-.188.5.5 0 0 0-.434-.747m5.043-.038a.5.5 0 1 0 0 0m-3.989-1.037a.5.5 0 1 0 0 1 .5.5 0 0 0 0-1m2.918-.022a.501.501 0 0 0-.247.936v-.002a.499.499 0 1 0 .247-.934m-1.457-.38h-.016a.5.5 0 0 0 .007 1h.019a.502.502 0 0 0 .492-.508.504.504 0 0 0-.502-.492M121.508 24.57a.5.5 0 1 0 0 0m-1.586-.007a.502.502 0 0 0-.433.247.502.502 0 0 0 .432.752c.172 0 .34-.088.431-.248a.498.498 0 0 0-.43-.751m2.384-1.361a.5.5 0 0 0 0 1h.003a.5.5 0 0 0 .004-1h-.007m-3.17-.018a.5.5 0 0 0-.005 1h.004a.502.502 0 0 0 .5-.498c0-.276-.222-.5-.498-.502m2.39-1.363a.5.5 0 1 0 0 1 .5.5 0 0 0 0-1m-1.588-.014a.49.49 0 0 0-.244.065l-.007.004-.006.004a.499.499 0 1 0 .485.873l.02-.01v-.001a.499.499 0 0 0-.248-.935M120.762 23.234a.5.5 0 0 0-.24.061l-.005.004-.002.001-.01.005a.498.498 0 0 0-.184.682.497.497 0 0 0 .667.192l.02-.01a.501.501 0 0 0-.246-.935"/>
        <path fill="#000" d="M41.033 26.68a2.043 2.043 0 1 1 0-4.086 2.043 2.043 0 0 1 0 4.087m0-5.2a3.157 3.157 0 1 0 0 6.312 3.157 3.157 0 0 0 0-6.313"/>
        <path fill="#262626" d="M41.033 22.594a2.043 2.043 0 1 0 0 4.087 2.043 2.043 0 0 0 0-4.087"/>
        <path fill="#000" d="M196.467 22.27a2.367 2.367 0 1 0 0 4.737 2.367 2.367 0 0 0 0-4.737M203.567 23.044a1.593 1.593 0 1 0 .001 3.186 1.593 1.593 0 0 0-.001-3.186"/>
        <path fill="#1D1D1D" d="M12.61 40.6h216.179v384H12.61z"/>
    </g>
</svg>
