<svg xmlns="http://www.w3.org/2000/svg" width="24" height="24" viewBox="0 0 24 24">
    <g fill="none" fill-rule="evenodd">
        <path fill="#2ECC71" d="M13.466 11.455l-.538-1.768H10.22l-.538 1.768H7.987L10.607 4h1.925l2.63 7.455h-1.696zm-.914-3.088a522.718 522.718 0 0 1-.84-2.717 7.669 7.669 0 0 1-.135-.497c-.112.433-.432 1.505-.96 3.214h1.935zM3 13.03h2.31c1.053 0 1.818.15 2.293.45.476.3.714.776.714 1.43 0 .443-.104.807-.313 1.091a1.248 1.248 0 0 1-.83.513v.05c.47.106.81.302 1.018.59.209.288.313.67.313 1.148 0 .677-.245 1.205-.734 1.584-.49.38-1.154.569-1.993.569H3V13.03zm1.574 2.94h.914c.427 0 .736-.065.927-.197.191-.132.287-.35.287-.655 0-.285-.104-.489-.312-.612-.209-.124-.538-.186-.988-.186h-.828v1.65zm0 1.25v1.935H5.6c.433 0 .753-.083.96-.25.206-.165.31-.419.31-.76 0-.617-.44-.925-1.32-.925h-.976zm13.97-2.986c-.592 0-1.051.223-1.376.668-.325.445-.488 1.065-.488 1.86 0 1.656.622 2.484 1.864 2.484.521 0 1.153-.13 1.894-.39v1.32c-.61.253-1.29.38-2.041.38-1.08 0-1.906-.327-2.478-.982-.572-.655-.858-1.596-.858-2.821 0-.772.14-1.448.421-2.029a3.046 3.046 0 0 1 1.211-1.336c.527-.31 1.144-.464 1.851-.464.721 0 1.446.174 2.174.523l-.508 1.28a8.406 8.406 0 0 0-.838-.346 2.5 2.5 0 0 0-.828-.147z"/>
    </g>
</svg>
