<svg xmlns="http://www.w3.org/2000/svg" width="32" height="32" viewBox="0 0 32 32">
    <path fill="#2C496B" fill-rule="evenodd" d="M16.25 4c.685 0 1.283.371 1.603.923H20.8c.552 0 1 .448 1 1l-.001.722H24.5c.552 0 1 .448 1 1V27c0 .552-.448 1-1 1H8c-.552 0-1-.448-1-1V7.646c0-.553.448-1 1-1l2.699-.001.001-.722c0-.552.448-1 1-1h2.947c.32-.552.918-.923 1.603-.923zm2.956 9.387l-4.269 4.411-1.63-1.732c-.493-.523-1.303-.534-1.809-.026-.506.509-.517 1.345-.025 1.868l2.535 2.692c.497.528 1.316.534 1.82.013l5.186-5.358c.5-.516.5-1.352 0-1.868-.499-.516-1.309-.516-1.808 0z"/>
</svg>
