<svg xmlns="http://www.w3.org/2000/svg" width="32" height="32" viewBox="0 0 32 32">
    <g fill="none" fill-rule="evenodd">
        <path fill="#2C496B" d="M26 4a2 2 0 0 1 2 2v20a2 2 0 0 1-2 2H6a2 2 0 0 1-2-2V6a2 2 0 0 1 2-2h20zM10 22c-1.667 0-5 1-5 3v1h10v-1c0-2-3.333-3-5-3zm0-7c-1.654 0-3 1.347-3 3 0 1.654 1.346 3 3 3 1.652 0 3-1.346 3-3 0-1.653-1.348-3-3-3zm11-5a1 1 0 0 0-1 1v8a1 1 0 0 0 2 0v-8a1 1 0 0 0-1-1zm-4 2a1 1 0 0 0-1 1v6a1 1 0 0 0 2 0v-6a1 1 0 0 0-1-1zm8-4a1 1 0 0 0-1 1v10a1 1 0 0 0 2 0V9a1 1 0 0 0-1-1z"/>
        <path fill="#979797" fill-rule="nonzero" d="M13 12.5l9 4.5V8l-9 4.5z"/>
    </g>
</svg>
