<svg xmlns="http://www.w3.org/2000/svg" width="197" height="179" viewBox="0 0 197 179">
    <g fill="none" fill-rule="evenodd">
        <path fill="#D5E5F6" fill-opacity=".2" d="M133.05 38.582c-6.642-2.695-8.545-8.108-5.71-16.24 2.835-8.132 1.353-14.27-4.446-18.414-10.6-5.237-23.824-5.237-39.671 0-23.771 7.856-48.886 28.656-64.594 54.738-15.707 26.082-15.52 42.816-12.716 50.74 2.802 7.922 11.596 22.453 25.52 28.112 9.282 3.772 15.412 11.883 18.391 24.33 4.415 15.654 16.259 20.056 35.531 13.207 28.908-10.273 65.04-42.5 83.287-71.422 18.248-28.921 17.303-47.67 4.915-61.586-1.517-1.61-10.902-8.516-26.381-3.465-.047-.072-2.208.927-7.15.927-2.724 0-5.049-.309-6.975-.927z"/>
        <g transform="translate(0 34.745)">
            <path fill="#2ECC71" d="M14.455 0h149.272c5.523 0 10 4.477 10 10v13.596H4.455V10c0-5.523 4.477-10 10-10z"/>
            <path fill="#FFF" stroke="#EDF1F5" d="M4.93 25.064l-3.842 75.854a10.5 10.5 0 0 0-.014.585c.03 5.8 4.755 10.476 10.554 10.446l151.153-.775c5.778-.03 10.446-4.722 10.446-10.5v-75.61H4.93z"/>
            <path fill="#FFF" stroke="#EDF1F5" d="M4.955 25.064v80.9c0 5.799 4.7 10.5 10.5 10.5h147.272c5.8 0 10.5-4.701 10.5-10.5v-80.9H4.955z"/>
            <path fill="#A6B9CD" fill-opacity=".2" d="M51.367 87.41a7.255 7.255 0 1 1 0 14.51 7.255 7.255 0 0 1 0-14.51zm-25.149 0a7.255 7.255 0 1 1 0 14.51 7.255 7.255 0 0 1 0-14.51zm50.298-.005a7.255 7.255 0 1 1 0 14.51 7.255 7.255 0 0 1 0-14.51zM26.218 63.23a7.255 7.255 0 1 1 0 14.51 7.255 7.255 0 0 1 0-14.51zm125.746 0a7.255 7.255 0 1 1 0 14.51 7.255 7.255 0 0 1 0-14.51zm-75.448-.003a7.255 7.255 0 1 1 0 14.51 7.255 7.255 0 0 1 0-14.51zm25.15 0a7.255 7.255 0 1 1 0 14.51 7.255 7.255 0 0 1 0-14.51zm25.149 0a7.255 7.255 0 1 1 0 14.51 7.255 7.255 0 0 1 0-14.51zM76.516 39.047a7.255 7.255 0 1 1 0 14.51 7.255 7.255 0 0 1 0-14.51zm25.15 0a7.255 7.255 0 1 1 0 14.51 7.255 7.255 0 0 1 0-14.51zm25.149 0a7.255 7.255 0 1 1 0 14.51 7.255 7.255 0 0 1 0-14.51zm25.149 0a7.255 7.255 0 1 1 0 14.51 7.255 7.255 0 0 1 0-14.51z"/>
            <path fill="#2ECC71" d="M51.367 61.295a9.19 9.19 0 1 1 0 18.378 9.19 9.19 0 0 1 0-18.378zm3.44 5.393l-4.266 5.381-2.48-2.05a.967.967 0 1 0-1.232 1.492l3.24 2.678a.967.967 0 0 0 1.374-.145l4.88-6.154a.967.967 0 0 0-1.515-1.202z"/>
            <path stroke="#FFF" d="M5.348 25.006h167.48"/>
            <circle cx="163.927" cy="97.109" r="31.573" fill="#FFF" stroke="#EDF1F5" stroke-linejoin="square"/>
            <circle cx="163.927" cy="97.109" r="32.573" stroke="#FFF"/>
            <path fill="#424242" fill-rule="nonzero" d="M164.496 122.931v5.483h-1v-5.483h1zm17.659-43.387c.15.155.164.39.047.561l-.059.069-17.581 16.942-14.486 5.136c-.35.098-.565.033-.648-.195-.073-.202.007-.374.24-.516l.094-.052 14.018-4.995.02.015c.02.01.046.01.077-.005l.05-.037 17.598-16.935a.445.445 0 0 1 .63.012zm-43.48 17.565v1h-5.484v-1h5.483zm56.127 0v1h-5.484v-1h5.484zm-30.942-.642l-.08.027c-.044-.05-.025-.133.08-.027zm.636-29.663v5.483h-1v-5.483h1z"/>
            <circle cx="163.927" cy="97.109" r="2.673" fill="#2ECC71"/>
        </g>
        <circle cx="51.25" cy="81.25" r="7.25" fill="#EDF1F5"/>
        <circle cx="26.25" cy="81.25" r="7.25" fill="#EDF1F5"/>
    </g>
</svg>
