<svg xmlns="http://www.w3.org/2000/svg" width="24" height="24" viewBox="0 0 24 24">
    <path fill="#546E7A" fill-rule="evenodd" d="M14.568 7.179h5.15c.446 0 .607.046.77.133.163.087.291.215.378.378.088.163.134.325.134.77v10.294c0 .446-.046.607-.134.77a.909.909 0 0 1-.378.378c-.163.087-.324.134-.77.134h-5.15c-.446 0-.608-.047-.77-.134a.909.909 0 0 1-.379-.378c-.087-.163-.133-.324-.133-.77V8.46c0-.446.046-.608.133-.77a.909.909 0 0 1 .378-.379c.163-.087.325-.133.77-.133zm1.073 9.428c-.223 0-.304.023-.385.067a.454.454 0 0 0-.19.189c-.043.081-.066.162-.066.385v.432c0 .223.023.304.067.386a.454.454 0 0 0 .189.189c.081.043.162.066.385.066h3.004c.223 0 .303-.023.385-.066a.454.454 0 0 0 .189-.19c.044-.08.067-.162.067-.385v-.432c0-.223-.023-.304-.067-.385a.454.454 0 0 0-.19-.19c-.08-.043-.161-.066-.384-.066H15.64zM4.281 3.75h5.151c.446 0 .608.046.77.134.164.087.292.215.379.378.087.163.133.324.133.77v10.293c0 .446-.046.608-.133.77a.909.909 0 0 1-.378.379c-.163.087-.325.133-.77.133H4.281c-.446 0-.607-.046-.77-.133a.909.909 0 0 1-.378-.378c-.088-.163-.134-.325-.134-.77V5.031c0-.446.046-.607.134-.77a.909.909 0 0 1 .378-.378c.163-.088.324-.134.77-.134zm1.074 1.714c-.223 0-.303.023-.385.067a.454.454 0 0 0-.189.19c-.044.08-.067.161-.067.384v.433c0 .222.023.303.067.385a.454.454 0 0 0 .19.189c.08.043.161.067.384.067H8.36c.223 0 .304-.024.385-.067a.454.454 0 0 0 .19-.19c.043-.08.066-.162.066-.384v-.433c0-.223-.023-.303-.067-.385a.454.454 0 0 0-.189-.189c-.081-.044-.162-.067-.385-.067H5.355z"/>
</svg>
