<svg xmlns="http://www.w3.org/2000/svg" width="24" height="24" viewBox="0 0 24 24">
    <g fill="none" fill-rule="evenodd">
        <path fill="#2ECC71" d="M2.727 4.307l1.637-1.656 1.963 1.988L4.8 6.185 2.727 4.307zM10.91 0h2.182v3.203h-2.182V0zM3.273 13.143H0v-2.209h3.273v2.209zm17.454 0v-2.209H24v2.209h-3.273zm-3.054-8.504l1.963-1.988 1.528 1.546L19.2 6.185l-1.527-1.546z"/>
        <path stroke="#2ECC71" stroke-width="2.182" d="M15.273 17.743V23H8.727v-5.257c-1.963-1.095-3.272-3.286-3.272-5.695C5.455 8.433 8.4 5.476 12 5.476s6.545 2.957 6.545 6.572c0 2.41-1.309 4.6-3.272 5.695z"/>
    </g>
</svg>
