<svg xmlns="http://www.w3.org/2000/svg" width="19" height="18" viewBox="0 0 19 18">
    <g fill="none" fill-rule="evenodd" opacity=".5" transform="translate(-3 -4)">
        <path fill="none" d="M0 0h26v26H0z"/>
        <path fill="#4A90E2" fill-rule="nonzero" d="M15.031 8.26a3.922 3.922 0 0 1-3.927 3.928A3.922 3.922 0 0 1 7.177 8.26a3.922 3.922 0 0 1 3.927-3.927 3.922 3.922 0 0 1 3.927 3.927z"/>
        <path fill="#4A90E2" d="M11.803 14.704a5.395 5.395 0 0 0-.553 2.387c0 1.089.32 2.102.873 2.95H3.25v-1.308c0-2.618 5.236-4.058 7.854-4.058.217 0 .451.01.7.03z"/>
        <circle cx="16.873" cy="16.873" r="4.415" fill="#E67986"/>
        <path fill="#FFF" d="M19.458 14.958l-.5-.5-2 2-2-2-.5.5 2 2-2 2 .5.5 2-2 2 2 .5-.5-2-2z"/>
    </g>
</svg>
