<svg xmlns="http://www.w3.org/2000/svg" width="35" height="35" viewBox="0 0 35 35">
    <defs>
        <path id="a" d="M.415.191h2.178v1.987H.415z"/>
    </defs>
    <g fill="none" fill-rule="evenodd">
        <path fill="#D5E5F6" d="M22.6 9.533a6.525 6.525 0 0 1-6.533 6.533 6.525 6.525 0 0 1-6.534-6.533A6.525 6.525 0 0 1 16.067 3 6.525 6.525 0 0 1 22.6 9.533"/>
        <path fill="#C1D3E6" d="M16.73 31.454l.505-4.04 4.52 3.013-4.52-3.012L29.882 8.44l4.564 2.95-12.69 19.037-5.273 3.014v-.002l-.001.001.248-1.986z"/>
        <g fill="#D5E5F6">
            <path d="M20.492 19.64c-1.626-.407-3.199-.623-4.425-.623C11.712 19.017 3 21.652 3 26.443v2.396h11.852l5.64-9.199zM25.964 28.838h3.17v-2.395c0-.688-.197-1.33-.52-1.926l-2.65 4.321z"/>
        </g>
    </g>
</svg>
