<svg xmlns="http://www.w3.org/2000/svg" width="24" height="24" viewBox="0 0 24 24">
    <g fill="none" fill-rule="evenodd">
        <path fill="#FFF" d="M0 0h24v24H0z"/>
        <path fill="#2C496B" fill-rule="nonzero" d="M13.875 7.625a3.62 3.62 0 0 1-3.625 3.625 3.62 3.62 0 0 1-3.625-3.625A3.62 3.62 0 0 1 10.25 4a3.62 3.62 0 0 1 3.625 3.625z"/>
        <path fill="#2C496B" d="M11.586 13.65c-.374.7-.586 1.5-.586 2.35 0 .91.243 1.765.669 2.5H3v-1.208c0-2.417 4.833-3.746 7.25-3.746.392 0 .848.035 1.336.104z"/>
        <path fill="#2C496B" fill-rule="nonzero" d="M16 11.875l-3.375 1.5v2.25c0 2.081 1.44 4.027 3.375 4.5 1.935-.473 3.375-2.419 3.375-4.5v-2.25L16 11.875zm0 4.121h2.625c-.199 1.545-1.23 2.921-2.625 3.353V16h-2.625v-2.137L16 12.696v3.3z"/>
    </g>
</svg>
