<svg xmlns="http://www.w3.org/2000/svg" width="144" height="138" viewBox="0 0 144 138">
    <g fill="none" fill-rule="evenodd">
        <path fill="#F7FAFD" d="M7.037 94.016c-6.884-9.456-21.57-32.19 33.797-79.742C56.874 2.09 70.848-3.305 85.147 2.09c9.533 3.597 12.073 10.765 7.62 21.505-.83 13.41 10.106 16.763 32.809 10.058 34.054-10.058-.603 49.65-17.984 68.336-17.382 18.687-30.259 27.11-48.097 33.995-11.891 4.59-20.391 1.338-25.5-9.756-5.401-19.607-23.634-26.905-26.958-32.213z"/>
        <g transform="translate(8 14)">
            <path fill="#FFF" stroke="#EEF1F5" d="M0.5 12.5H122.5V90.5H0.5z"/>
            <rect width="36" height="5" x="27" y="26" fill="#EEF1F5" rx="2.5"/>
            <rect width="107" height="4" x="8" y="41" fill="#EEF1F5" rx="2"/>
            <rect width="107" height="4" x="8" y="51" fill="#EEF1F5" rx="2"/>
            <rect width="107" height="4" x="8" y="61" fill="#EEF1F5" rx="2"/>
            <rect width="37" height="4" x="8" y="71" fill="#EEF1F5" rx="2"/>
            <circle cx="15" cy="28" r="7" fill="#EEF1F5"/>
            <g transform="translate(100)">
                <rect width="35" height="35" x=".5" y=".5" fill="#FFF" stroke="#424242" rx="17.5"/>
                <g transform="translate(9 10)">
                    <rect width="16.5" height="14.5" x=".75" y=".75" fill="#FFF" stroke="#2ECC71" stroke-width="1.5" rx="2"/>
                    <path fill="#2ECC71" fill-rule="nonzero" d="M7.4 10.152c.174.178.196.45.064.651l-.057.072L5.39 13.03l-.033.033c-.366.355-.933.375-1.321.064l-.093-.084-.844-.868c-.174-.179-.195-.451-.063-.653l.057-.073.016-.016c.166-.16.419-.177.602-.052l.074.063.876.903 2.048-2.187.015-.016c.189-.184.492-.18.676.009zm7 .641c.331 0 .6.27.6.6 0 .332-.269.6-.6.6H9.6c-.331 0-.6-.268-.6-.6 0-.33.269-.6.6-.6h4.8zm-7-5.642c.174.179.196.45.064.652l-.056.072L5.39 8.029l-.033.033c-.366.355-.933.375-1.321.064l-.093-.084-.844-.869c-.196-.2-.198-.52-.006-.724l.015-.015c.166-.161.419-.178.603-.052l.074.062.876.902L6.709 5.16l.015-.016c.189-.184.492-.18.676.008zm7 .642c.331 0 .6.27.6.6 0 .332-.269.6-.6.6H9.6c-.331 0-.6-.268-.6-.6 0-.33.269-.6.6-.6h4.8zM14.4 2c.331 0 .6.269.6.6 0 .331-.269.6-.6.6H3.6c-.331 0-.6-.269-.6-.6 0-.331.269-.6.6-.6h10.8z"/>
                </g>
            </g>
        </g>
    </g>
</svg>
