<svg xmlns="http://www.w3.org/2000/svg" width="32" height="32" viewBox="0 0 32 32">
    <g fill="none" fill-rule="evenodd" transform="translate(3 3)">
        <path fill="#FFF" fill-rule="nonzero" d="M4.928 4.001v3.287c0 .513.386.936.884.993l.116.007h1.286c.513 0 .935-.386.993-.883l.007-.117-.001-3.287h6.571v3.287c0 .513.387.936.884.993l.117.007h1.285c.513 0 .936-.386.994-.883l.006-.117V4.001h2.929c1.104 0 2 .896 2 2v6.614c-.983-.558-2.098-.904-3.285-.979V9.955h-3.286v2.197c-2.015.796-3.62 2.424-4.405 4.468H9.857v3.334h1.657c.092 1.502.6 2.89 1.409 4.046H2c-1.105 0-2-.895-2-2V6.002c0-1.105.895-2 2-2L4.928 4zm1.643 12.62H3.286v3.333H6.57V16.62zm0-6.666H3.286v3.333H6.57V9.955zm6.571 0H9.857v3.333h3.285V9.955z"/>
        <path fill="#FFF" fill-rule="nonzero" d="M7.1 1v6c0 .276-.224.5-.5.5s-.5-.224-.5-.5V1c0-.276.224-.5.5-.5s.5.224.5.5z"/>
        <rect width="7" height="1" x="12.9" y="3.5" fill="#FFF" fill-rule="nonzero" rx=".5" transform="rotate(90 16.4 4)"/>
        <circle cx="19.5" cy="19.5" r="6" stroke="#FFFFFE" stroke-width="1.5"/>
        <path stroke="#FFFFFE" stroke-linecap="round" stroke-width="1.5" d="M19.5 16.041v3.813c0 .055.045.1.1.1h3.399"/>
    </g>
</svg>
