<svg xmlns="http://www.w3.org/2000/svg" width="24" height="24" viewBox="0 0 24 24">
    <g fill="#FFF" fill-rule="nonzero" stroke="#FFF" stroke-width=".5">
        <path d="M18.063 19.579H4.673c-.21 0-.378-.13-.378-.291V6.018c0-.162.168-.292.379-.292h8.168c.253 0 .421.13.421.292 0 .161-.168.29-.379.29h-7.79v12.688h12.632v-7.8c0-.162.169-.291.38-.291.21 0 .378.13.378.291v8.092c0 .161-.21.29-.42.29z"/>
        <path d="M8.042 16.674c-.084 0-.21-.042-.253-.127a.478.478 0 0 1-.126-.336l.38-2.737c0-.085.041-.169.125-.21l8.127-8.17c.884-.883 1.937-.926 2.82-.041.464.463.674.926.674 1.431 0 .463-.252.969-.673 1.39l-8.21 8.168c-.043.043-.127.084-.211.127l-2.61.505h-.043zm.716-2.948l-.253 2.063 1.937-.378 8.126-8.085c.295-.294.464-.59.464-.842s-.126-.547-.421-.842c-.59-.59-1.095-.59-1.727.042l-8.126 8.042z"/>
    </g>
</svg>
