<?xml version="1.0" encoding="UTF-8" standalone="no"?>
<svg width="320px" height="300px" viewBox="0 0 320 300" version="1.1" xmlns="http://www.w3.org/2000/svg" xmlns:xlink="http://www.w3.org/1999/xlink">
    <!-- Generator: Sketch 48.2 (47327) - http://www.bohemiancoding.com/sketch -->
    <title>noTasks</title>
    <desc>Created with Sketch.</desc>
    <defs>
        <polygon id="path-1" points="0 0 320 0 320 299.733333 0 299.733333"></polygon>
        <polygon id="path-3" points="0.284985885 0.0870242434 151.798242 0.0870242434 151.798242 180.907422 0.284985885 180.907422"></polygon>
    </defs>
    <g id="TaskManagement_empty" stroke="none" stroke-width="1" fill="none" fill-rule="evenodd" transform="translate(-485.000000, -104.000000)">
        <g id="noTasks" transform="translate(478.000000, 92.000000)">
            <g id="Group-6" transform="translate(7.000000, 12.000000)">
                <g id="Page-1" opacity="0.5">
                    <mask id="mask-2" fill="white">
                        <use xlink:href="#path-1"></use>
                    </mask>
                    <g id="Clip-2"></g>
                    <path d="M29.4465308,240.300643 C25.8616778,233.388186 28.7780311,228.115257 29.3817368,221.181081 C29.9243866,214.951864 26.4610223,210.040103 25.7426811,204.044839 C25.4000205,201.185903 25.9071582,198.255602 25.3688695,195.426453 C24.8885216,192.903241 23.606971,190.613983 22.3447339,188.373748 C19.8794465,184.001878 17.3823852,179.585948 13.9657474,175.903524 C5.45779588,166.733457 -3.47380873,161.113013 1.36518213,146.8928 C4.78119693,136.855184 15.019273,131.004511 21.7167304,122.769633 C30.1499196,112.400637 32.714267,98.4100325 32.6127149,85.0660548 C32.5105397,71.7220772 30.0489905,58.4904216 29.7169212,45.1501673 C29.4994874,36.4256646 30.2813767,27.37971 34.4475067,19.702098 C42.1673388,5.47567905 59.9651309,-0.754158248 76.1798311,0.0724323769 C92.3945313,0.899023001 107.683425,7.37770628 122.961104,12.8510766 C138.238783,18.324447 154.614222,22.9159966 170.549187,19.8162817 C192.597217,15.5269466 212.487731,-3.10485291 234.399319,1.82924774 C247.906377,4.87062961 258.121402,16.8233038 262.168535,30.0146228 C266.215045,43.2053212 264.965892,57.4515982 262.112463,70.9482345 C260.358041,79.24641 258.036048,88.0224195 260.912528,96.0034871 C264.073728,104.774532 272.742419,110.294445 281.296473,114.069953 C289.849905,117.845462 299.098004,120.696331 306.07582,126.903828 C315.362546,135.164769 319.067018,148.084902 319.870713,160.460801 C320.146711,164.719108 320.108083,169.129453 318.453967,173.066308 C316.204245,178.424874 311.284261,182.17556 306.279547,185.157367 C291.520843,193.949512 274.332364,198.277942 260.047154,207.814763 C248.216018,215.714536 238.754847,227.088845 233.162626,240.136194 C225.100756,258.947336 223.610494,282.808624 206.512975,294.13577 C196.512893,300.761527 183.289308,301.014717 171.824507,297.450821 C160.359706,293.886924 150.297945,286.932269 140.667312,279.784618 C131.568115,273.031025 122.590407,265.963427 112.414633,260.961685 C99.4483557,254.587877 84.8522597,251.788515 70.395097,251.991439 C62.872139,252.097556 55.2924862,252.992408 47.8617351,251.819543 C40.430984,250.647299 32.8993037,246.958669 29.4465308,240.300643" id="Fill-1" fill="#EAE6A7" opacity="0.200000003" mask="url(#mask-2)"></path>
                </g>
                <g id="Page-1" transform="translate(51.687840, 55.656480)">
                    <path d="M171.506796,148.708658 C171.793648,149.853496 171.093454,151.018456 169.946473,151.304024 L66.9891615,176.989663 C65.8421804,177.276086 64.6759043,176.576939 64.3894806,175.431673 L28.843786,33.3758833 C28.5569335,32.2306174 29.2571279,31.0660853 30.4036803,30.7800899 L133.36142,5.09445089 C134.508401,4.80845551 135.674678,5.50717476 135.96153,6.6524407 L171.506796,148.708658 Z M132.841741,3.01755928 L29.8844301,28.7031983 C27.5964708,29.2739047 26.1922229,31.6102472 26.763784,33.8947851 L62.3094786,175.950575 C62.8810397,178.235113 65.2208811,179.637261 67.5088404,179.066554 L170.466152,153.380915 C172.754111,152.810209 174.158788,150.474295 173.587227,148.189757 L138.041103,6.1335389 C137.469542,3.84900094 135.129701,2.44685293 132.841741,3.01755928 Z" id="Fill-1" fill="#000000" opacity="0.100000001"></path>
                    <path d="M172.429075,147.033595 C173.000638,149.318136 171.596815,151.654482 169.30885,152.225189 L66.3508478,177.910438 C64.0628827,178.481145 61.7230353,177.079423 61.1514728,174.794882 L25.6056876,32.7384533 C25.0341251,30.4539119 26.4383766,28.1179941 28.7259129,27.5468587 L131.684344,1.86160964 C133.972309,1.2904743 136.311728,2.69305253 136.883719,4.97759388 L172.429075,147.033595 Z" id="Stroke-3" stroke="#EFBBA0" stroke-width="10"></path>
                    <g id="Group-7" transform="translate(23.161963, 0.000000)">
                        <mask id="mask-4" fill="white">
                            <use xlink:href="#path-3"></use>
                        </mask>
                        <g id="Clip-6"></g>
                        <path d="M6.20352405,30.1570726 C5.05544656,30.4434381 4.355012,31.6094773 4.64170948,32.7562253 L40.2213819,174.996279 C40.5080794,176.142599 41.6754704,176.842222 42.8235478,176.555857 L145.879704,150.837406 C147.027353,150.550612 147.728216,149.385002 147.441519,148.238254 L111.861417,5.99862825 C111.57472,4.85188022 110.407329,4.15182805 109.259681,4.43819354 L6.20352405,30.1570726 Z M146.920056,154.996136 L43.8638992,180.715015 C40.4196667,181.574112 36.9179231,179.475241 36.0574015,176.035426 L0.477728992,33.7953719 C-0.38279264,30.3551278 1.71936943,26.8574391 5.16317271,25.997914 L108.219329,0.279463568 C111.663132,-0.580061595 115.164876,1.51923752 116.025398,4.95948162 L151.605499,147.199107 C152.466021,150.638922 150.363859,154.13704 146.920056,154.996136 Z" id="Fill-5" fill="#EFBBA0" mask="url(#mask-4)"></path>
                    </g>
                    <path d="M69.2678666,28.9022403 C69.4897214,28.922457 69.6712784,28.9853048 69.8112377,29.0912232 C69.9511969,29.1971415 70.0326592,29.3184422 70.0551914,29.4542462 C70.0824899,29.610267 70.0525915,29.7627719 69.9637629,29.9100028 C69.8753676,30.0581127 69.7198092,30.1873243 69.497521,30.2976376 L67.2482072,30.8843637 C67.5528244,32.1202242 67.8600414,33.3582823 68.1707249,34.5976588 C68.4814084,35.8374748 68.789492,37.0750933 69.0936758,38.3109539 C69.1500062,38.5834409 69.1144747,38.8023095 68.9866482,38.9666807 C68.8588216,39.1314915 68.7032632,39.2374098 68.5191064,39.2839963 C68.3453489,39.3279458 68.1694249,39.3090475 67.992201,39.2273014 C67.8145438,39.1451158 67.6806509,38.989095 67.591389,38.757481 L65.7303213,31.268922 L63.4463426,31.8477372 C63.1781236,31.8613616 62.9688347,31.816533 62.8189093,31.7128122 C62.6685507,31.6095308 62.5779888,31.4746058 62.5480904,31.3075976 C62.5173254,31.1414684 62.5524235,30.9744602 62.6525182,30.807452 C62.7526129,30.6408833 62.9458693,30.5209011 63.2318541,30.4483844 C64.3051637,30.1763369 65.2042825,29.9486784 65.929644,29.7645299 C66.6554387,29.5808209 67.2477739,29.428316 67.7062162,29.3061364 C68.1646585,29.1848357 68.5139066,29.0934207 68.7539605,29.0323308 C68.9944478,28.9716805 69.1656053,28.9281705 69.2678666,28.9022403" id="Fill-8" fill="#F2B38F"></path>
                    <path d="M77.7292323,35.5487733 C78.0438761,35.260818 78.2930226,34.9234864 78.4770998,34.5372156 C78.6598929,34.1509447 78.7913155,33.7480695 78.8705115,33.3277159 C78.9497076,32.9086732 78.9801017,32.484387 78.9608378,32.0570421 C78.942002,31.6292602 78.8872069,31.2298807 78.7960244,30.8589033 C78.7305272,30.5910481 78.640629,30.331932 78.5259017,30.081992 C78.4111745,29.8320521 78.2690497,29.6030861 78.1008116,29.3942202 C77.7626231,29.0206211 77.362362,28.771992 76.8987441,28.6492068 C76.4355543,28.5268586 75.9775015,28.522926 75.5241577,28.6387199 C75.2621686,28.7055744 75.0215839,28.813503 74.8011192,28.9625057 C74.5810826,29.1119453 74.3794538,29.291972 74.1958046,29.5030227 C73.9843297,29.7761215 73.812667,30.0907312 73.6803882,30.4472889 C73.5485375,30.8042836 73.4539303,31.1700174 73.3957105,31.5462382 C73.3383469,31.922459 73.3148021,32.2978059 73.3263605,32.6727159 C73.3379188,33.0471889 73.383296,33.3945705 73.4612078,33.7139867 C73.5596677,34.1159881 73.7039329,34.4869654 73.8940034,34.8273557 C74.084502,35.167309 74.3190936,35.4495838 74.5990623,35.6737433 C74.8781748,35.8979027 75.1966713,36.0525858 75.5541237,36.1360448 C75.9115761,36.2203777 76.3122653,36.2055211 76.754907,36.092786 C76.9261417,36.0490902 77.0990887,35.977866 77.2724638,35.8786766 C77.446267,35.7799241 77.5986659,35.6698107 77.7292323,35.5487733 M80.4878232,31.9220221 C80.4852546,32.3061081 80.4497234,32.7172856 80.3799453,33.1564284 C80.3105953,33.5960081 80.2044298,34.0281595 80.0618769,34.4528827 C79.9188959,34.8780428 79.7331063,35.2787333 79.5032237,35.6549541 C79.2737692,36.0311749 78.9955129,36.3427259 78.670167,36.5900441 C78.3872016,36.7932296 78.1072329,36.9741302 77.8298327,37.132746 C77.5515764,37.2909247 77.2566246,37.4102143 76.9436932,37.4901776 C76.680848,37.5570322 76.4064444,37.5832496 76.118342,37.569267 C75.8302397,37.5544104 75.5391407,37.5360582 75.2437609,37.5128994 C74.7818553,37.4665818 74.3713201,37.3328727 74.0117273,37.1126459 C73.6521344,36.8924191 73.338775,36.6219421 73.0729331,36.3012149 C72.8062351,35.9804878 72.5827738,35.624367 72.400837,35.2324157 C72.2189001,34.8409014 72.0780596,34.4389 71.9770311,34.0268487 C71.941928,33.8826525 71.9102496,33.731902 71.882424,33.5745972 C71.8545983,33.4177292 71.833194,33.264357 71.8182109,33.1149174 C71.7903853,32.7823923 71.798519,32.4109781 71.84304,31.9998006 C71.8871329,31.5890601 71.9637604,31.1783196 72.0720664,30.7671422 C72.1808004,30.3564017 72.3207848,29.9648873 72.4924475,29.5925991 C72.6641103,29.2203109 72.8623145,28.9017686 73.08706,28.6360981 C73.3824398,28.3092535 73.7193441,28.0313483 74.0977727,27.8036932 C74.4762014,27.5756011 74.8833118,27.4064984 75.3169637,27.295511 C76.0138889,27.1181061 76.7129545,27.1259713 77.4145886,27.3191068 C78.1157947,27.5126791 78.7279587,27.8871521 79.2506525,28.4438366 C79.5032237,28.7300441 79.71213,29.0485864 79.8790838,29.4003376 C80.0456096,29.7520888 80.1731794,30.1082095 80.2613653,30.4691368 C80.3195851,30.705968 80.3671027,30.945421 80.4047743,31.1879327 C80.442446,31.4300074 80.4702716,31.6747039 80.4878232,31.9220221" id="Fill-10" fill="#F2B38F"></path>
                    <path d="M89.2242988,25.7944664 C89.0799861,25.829877 88.9369775,25.8755268 88.7939688,25.9318424 C88.6500908,25.9885847 88.5044741,26.0457536 88.35538,26.1037758 L89.9923727,32.5331461 C90.2610029,32.4350203 90.5439775,32.3258021 90.8395577,32.2050648 C91.1351379,32.084754 91.4172431,31.9512177 91.6854386,31.805309 C91.9527649,31.6594002 92.1974879,31.4951462 92.417869,31.3129736 C92.6382501,31.130801 92.8112515,30.9226038 92.9373077,30.6883819 C93.1681211,30.2685743 93.308087,29.8253018 93.3580748,29.3585645 C93.4080627,28.8922539 93.3750272,28.4323427 93.2598379,27.9796843 C93.1598622,27.5871813 92.9946851,27.2266758 92.7643064,26.8985944 C92.533493,26.5700865 92.2453023,26.3042937 91.8992996,26.1003627 C91.5537316,25.8964318 91.1542636,25.7620422 90.7017651,25.6967672 C90.2492666,25.6310656 89.7572125,25.6634898 89.2242988,25.7944664 Z M89.6880989,34.0988919 C89.3138422,34.1266231 89.0447773,34.0540953 88.8809042,33.880882 L88.8117906,33.8015282 C88.7044254,33.678231 88.6392239,33.5719992 88.616186,33.4815529 L86.951374,26.9416844 C86.9052983,26.9745352 86.8622653,26.9984267 86.8227097,27.0133589 C86.7827194,27.0287177 86.7218647,27.0462097 86.6401455,27.0662615 C86.4145482,27.1217239 86.2145969,27.1067917 86.0398569,27.0210383 C85.8659862,26.9357116 85.758621,26.8128411 85.7177614,26.6520001 C85.6586453,26.4207647 85.7412339,26.1899558 85.9655271,25.9587203 C86.1906897,25.7279115 86.4749683,25.5111816 86.8214057,25.3085305 C87.1678431,25.1067328 87.5338409,24.9313863 87.9211379,24.7829178 C88.3080002,24.6348759 88.6353118,24.5277908 88.9008993,24.4625159 C89.6594103,24.2765035 90.3674987,24.2308537 91.0234259,24.3264197 C91.6793532,24.421559 92.2609507,24.6233568 92.7699572,24.9309597 C93.2789637,25.238136 93.7092937,25.6366119 94.0631205,26.1263874 C94.4160781,26.6161629 94.6686253,27.1571345 94.8194581,27.7497287 C94.972899,28.3525622 95.0037611,28.9690479 94.9142176,29.5996126 C94.8242395,30.2297506 94.6047278,30.8227715 94.256117,31.377822 C94.012698,31.7472868 93.7153791,32.0681153 93.3654643,32.3407343 C93.0159842,32.6133532 92.6386848,32.8552546 92.2348701,33.0660116 C91.8319247,33.2771953 91.4107229,33.4657674 90.9743075,33.6317279 C90.5370226,33.7972618 90.1184289,33.9504233 89.7185263,34.0916391 L89.6880989,34.0988919 Z" id="Fill-12" fill="#F2B38F"></path>
                    <path d="M101.470472,29.7684518 C101.785139,29.4804921 102.034304,29.1427185 102.218394,28.7564418 C102.401201,28.3706021 102.532633,27.9672838 102.611835,27.5473609 C102.691036,27.1283118 102.721433,26.7040192 102.702167,26.2762309 C102.682902,25.8488796 102.628103,25.4494939 102.537342,25.078511 C102.47184,24.8106517 102.381507,24.5515317 102.2672,24.301588 C102.152464,24.0516443 102.010329,23.8226748 101.841651,23.6138058 C101.503866,23.2402011 101.103575,22.9915682 100.639924,22.8687812 C100.1767,22.7464311 99.718614,22.7424984 99.2652372,22.858294 C99.0032291,22.9247126 98.7626268,23.0330798 98.5421461,23.1820848 C98.3220935,23.3315266 98.1200219,23.5115561 97.9367874,23.7226099 C97.7248691,23.9957128 97.5531938,24.3103273 97.4213335,24.6668904 C97.2899014,25.0234535 97.1940029,25.3896298 97.1370633,25.7658563 C97.0792674,26.1420828 97.0552928,26.5174354 97.0672801,26.892351 C97.0788392,27.2668296 97.1242197,27.6142164 97.2021372,27.9336376 C97.3006043,28.335645 97.4440238,28.7066279 97.6353925,29.0465863 C97.8250487,29.3869817 98.0596573,29.6692608 98.3396464,29.8934237 C98.6196354,30.1175865 98.9372989,30.272272 99.2956336,30.3557322 C99.6522557,30.4400664 100.052974,30.4252096 100.496076,30.3124727 C100.667323,30.2687762 100.840283,30.197551 101.013671,30.0983601 C101.187486,29.9991691 101.339896,29.889491 101.470472,29.7684518 M104.228836,26.1416458 C104.226267,26.5257377 104.191161,26.9369214 104.12095,27.3760708 C104.052023,27.8152202 103.94585,28.2478151 103.803287,28.6725447 C103.659867,29.0977112 103.474492,29.4984077 103.244165,29.8746342 C103.014693,30.2508607 102.736845,30.5619795 102.411475,30.8093014 C102.128489,31.0129269 101.8485,31.1938302 101.57108,31.3524484 C101.292803,31.5106296 100.99783,31.6299209 100.684876,31.7094484 C100.422012,31.776741 100.14716,31.8025219 99.8594648,31.788976 C99.5713415,31.7741192 99.2797932,31.7557667 98.98482,31.7326076 C98.5224527,31.6862893 98.1123158,31.5525782 97.7522686,31.332348 C97.3926496,31.1121179 97.0801236,30.8416368 96.8134062,30.5209048 C96.5471169,30.2001728 96.3236393,29.8436097 96.1416892,29.4520895 C95.9597391,29.0605692 95.8188884,28.6585618 95.7178525,28.2465042 C95.6827469,28.1023059 95.6510662,27.9515531 95.6228104,27.7942459 C95.5954108,27.6369386 95.5735768,27.484001 95.5585927,27.3345591 C95.5316213,27.0020291 95.5397555,26.6301722 95.5838516,26.2194255 C95.6283759,25.8086788 95.7041528,25.3979321 95.8128947,24.9867485 C95.9220648,24.5760018 96.0612031,24.1844815 96.2333065,23.8121877 C96.4045536,23.4398939 96.6032003,23.1209097 96.8279622,22.8556722 C97.1229354,22.5288227 97.4598641,22.2509133 97.8387485,22.0232547 C98.2172047,21.7951592 98.6239166,21.6256169 99.0580281,21.5150649 C99.755004,21.3376573 100.453692,21.3455227 101.155378,21.538661 C101.857063,21.7317993 102.469271,22.1067149 102.991575,22.6634078 C103.244593,22.9496196 103.453514,23.2681668 103.62048,23.6199233 C103.78659,23.9716798 103.914597,24.3278059 104.00279,24.6883017 C104.061014,24.9255734 104.108107,25.16503 104.145781,25.4075453 C104.183883,25.6496237 104.211711,25.8943239 104.228836,26.1416458" id="Fill-14" fill="#F2B38F"></path>
                    <polygon id="Fill-16" fill="#F2B38F" points="59.0630069 136.125914 53.3118496 137.574664 36.4800925 69.6576093 42.2312498 68.209287"></polygon>
                    <path d="M63.8889145,140.646759 L60.1852587,141.582263 C59.5031514,141.754615 58.812136,141.33531 58.6420334,140.64633 L40.0308553,65.3588341 C39.6902259,63.9808736 40.5195292,62.5840485 41.8833195,62.2397728 L43.1177301,61.928081 C44.4815204,61.5838052 45.863127,62.421986 46.2041806,63.8003753 L64.8153587,139.087014 C64.9854613,139.776423 64.5705976,140.474835 63.8889145,140.646759" id="Fill-18" fill="#B9B3CA"></path>
                    <path d="M59.8389177,140.333219 L41.2631922,64.9728906 C40.9232116,63.59316 41.7509351,62.1954049 43.1121276,61.8507941 L41.8796451,62.1627892 C40.5184527,62.5074 39.6907291,63.9051551 40.0307097,65.2848857 L58.6064352,140.645643 C58.7766372,141.335294 59.4663362,141.755007 60.1467208,141.582058 L61.3792033,141.270492 C60.6983954,141.442582 60.0086963,141.02287 59.8389177,140.333219" id="Fill-20" fill="#000000" opacity="0.100000001"></path>
                    <path d="M43.0696653,61.9278922 L41.853647,62.2388224 C40.5110559,62.582257 39.6939718,63.9756691 40.0298285,65.3502628 L42.5612852,75.7238695 L48.6401233,74.1687908 L46.1086666,63.7956118 C45.7732277,62.4205904 44.4126741,61.5844576 43.0696653,61.9278922" id="Fill-22" fill="#8E8A9B"></path>
                    <path d="M43.2578003,61.8507941 L41.9683454,62.163462 C40.5446737,62.5088158 39.6782451,63.9100149 40.0343845,65.2922905 L42.7187187,75.7238695 L44.0077306,75.4112016 L41.3233964,64.9796227 C40.9677,63.5973471 41.8336857,62.196148 43.2578003,61.8507941" id="Fill-24" fill="#000000" opacity="0.100000001"></path>
                    <path d="M56.7468106,133.941305 L58.4441933,140.639954 C58.6201469,141.333855 59.3331527,141.75546 60.0365292,141.581985 L63.8584854,140.640386 C64.5618619,140.467342 64.989928,139.764379 64.8139744,139.070909 L63.1165917,132.37226 L56.7468106,133.941305 Z" id="Fill-26" fill="#7E7C89"></path>
                    <path d="M59.7629527,140.309966 L58.0400776,133.52835 L56.7468106,133.845542 L58.4696857,140.628031 C58.6482818,141.330135 59.371996,141.757427 60.0859363,141.581355 L61.3792033,141.264163 C60.6648187,141.439361 59.9411046,141.01207 59.7629527,140.309966" id="Fill-28" fill="#000000" opacity="0.100000001"></path>
                    <path d="M58.4839578,69.3653766 L125.074603,52.6020773" id="Stroke-30" stroke="#F2B38F"></path>
                    <path d="M56.7468106,61.2727493 L123.337456,44.50945" id="Stroke-32" stroke="#F2B38F"></path>
                    <path d="M60.8001542,78.0360487 L127.390799,61.2727493" id="Stroke-34" stroke="#F2B38F"></path>
                    <path d="M62.5373014,86.128676 L129.127947,69.3653766" id="Stroke-36" stroke="#F2B38F"></path>
                    <path d="M64.8534978,94.799348 L131.444143,78.0360487" id="Stroke-38" stroke="#F2B38F"></path>
                    <path d="M66.5906451,102.891975 L133.18129,86.128676" id="Stroke-40" stroke="#F2B38F"></path>
                    <path d="M68.9068414,110.984603 L135.497486,94.2213032" id="Stroke-42" stroke="#F2B38F"></path>
                    <path d="M71.2230378,119.655275 L137.813683,102.891975" id="Stroke-44" stroke="#F2B38F"></path>
                    <path d="M72.960185,127.747902 L139.55083,110.984603" id="Stroke-46" stroke="#F2B38F"></path>
                    <path d="M75.2763814,135.840529 L141.867026,119.07723" id="Stroke-48" stroke="#F2B38F"></path>
                    <path d="M77.0135286,144.511201 L143.604174,127.747902" id="Stroke-50" stroke="#F2B38F"></path>
                    <polygon id="Fill-52" fill="#F2B38F" points="0.371430498 27.1681058 0 25.4564841 12.9462681 22.5437474 13.318129 24.2558073"></polygon>
                    <polygon id="Fill-54" fill="#F2B38F" points="18.0185453 17.3413442 15.6343254 4.35919839 17.3030247 4.04631364 19.687669 17.028888"></polygon>
                    <polygon id="Fill-56" fill="#F2B38F" points="14.0955604 20.2315682 2.89524544 12.9860132 3.85496127 11.5608961 15.0552763 18.8064511"></polygon>
                    <polygon id="Fill-58" fill="#F2B38F" points="178.494196 173.413442 177.76807 160.219664 179.35814 160.118411 180.084266 173.312189"></polygon>
                    <polygon id="Fill-60" fill="#F2B38F" points="183.139527 153.759918 182.979512 152.080526 196.137626 150.869694 196.297641 152.549508"></polygon>
                    <polygon id="Fill-62" fill="#F2B38F" points="191.717558 167.054949 181.821413 158.516072 182.927625 157.228187 192.823346 165.767064"></polygon>
                </g>
            </g>
        </g>
    </g>
</svg>