<svg xmlns="http://www.w3.org/2000/svg" width="24" height="24" viewBox="0 0 24 24">
    <g fill="none" fill-rule="evenodd">
        <path d="M0 0h24v24H0z"/>
        <g fill-rule="nonzero">
            <g transform="translate(4 5)">
                <g fill="#2C496B">
                    <circle cx="7.2" cy="3.6" r="3.6"/>
                    <path d="M0 13.2c0-2.4 4.8-3.72 7.2-3.72 2.4 0 7.2 1.32 7.2 3.72v1.2H0v-1.2z"/>
                </g>
                <circle cx="12" cy="13" r="5.5" fill="#FFF"/>
            </g>
            <g transform="translate(12 13.5)">
                <path fill="#2C496B" d="M7.32 4.8v-.36-.36l.84-.72c.12-.12.12-.12 0-.24l-.84-1.44c0-.12-.12-.12-.24-.12l-.96.36-.72-.36L5.28.48c0-.12-.12-.12-.24-.12H3.48c-.12 0-.24.12-.24.12l-.12 1.08-.72.36-.96-.36c-.12 0-.24 0-.24.12L.36 3.12v.24l.84.72v.72l-.84.72c-.12.12-.12.12 0 .24L1.2 7.2c0 .12.12.12.24.12l.96-.36.72.36.12 1.08c0 .12.12.12.24.12h1.56c.12 0 .24-.12.24-.12l.12-1.08.72-.36 1.08.24c.12 0 .24 0 .24-.12l.84-1.44V5.4l-.96-.6z"/>
                <circle cx="4.32" cy="4.44" r="1.2" fill="#FFF"/>
            </g>
        </g>
    </g>
</svg>
