<svg xmlns="http://www.w3.org/2000/svg" xmlns:xlink="http://www.w3.org/1999/xlink" width="32" height="32" viewBox="0 0 32 32">
    <defs>
        <path id="a" d="M.317 0h22.019v22.209H.317z"/>
    </defs>
    <g fill="none" fill-rule="evenodd">
        <g transform="translate(6.91 5)">
            <mask id="b" fill="#fff">
                <use xlink:href="#a"/>
            </mask>
            <path fill="#FFF" d="M20.764 0H1.89C1.025 0 .317.714.317 1.586v19.037c0 .872.708 1.586 1.573 1.586h18.874c.865 0 1.572-.714 1.572-1.586V1.586C22.336.714 21.63 0 20.764 0" mask="url(#b)"/>
        </g>
        <path fill="#2C496B" d="M18.236 9.362c1.95 0 3.54 1.603 3.54 3.57 0 1.967-1.59 3.569-3.54 3.569s-3.538-1.602-3.538-3.57c0-1.966 1.588-3.569 3.538-3.569M25.314 24.036H11.159v-1.19c0-2.38 4.718-3.569 7.077-3.569 2.36 0 7.078 1.19 7.078 3.57v1.19z"/>
        <path fill="#FFF" d="M3 10.578h3.293V8.942H3zM3 16.923h3.293v-1.636H3zM3 23.268h3.293v-1.635H3z"/>
    </g>
</svg>
