<?xml version="1.0" encoding="UTF-8"?>
<svg width="32px" height="32px" viewBox="0 0 32 32" version="1.1" xmlns="http://www.w3.org/2000/svg" xmlns:xlink="http://www.w3.org/1999/xlink">
    <!-- Generator: Sketch 51.3 (57544) - http://www.bohemiancoding.com/sketch -->
    <title>chat_icn </title>
    <desc>Created with Sketch.</desc>
    <defs></defs>
    <g id="chat_icn-" stroke="none" stroke-width="1" fill="none" fill-rule="evenodd">
        <g id="chat_icn" opacity="0.300000012"></g>
        <path d="M26.2536825,5 L9.20187987,5 C8.23839754,5 7.45556238,5.78283516 7.45556238,6.7463481 L7.45556238,8.31306642 L22.8030819,8.31306642 C24.3166224,8.31306642 25.5481352,9.54678446 25.5481352,11.0630203 L25.5481352,19.0645917 L26.2536825,19.0645917 C27.2171648,19.0645916 28,18.2817565 28,17.3182742 L28,6.7463481 C28,5.78283516 27.2171648,5 26.2536825,5 Z" id="Shape" fill="#2C496B" fill-rule="nonzero"></path>
        <path d="M24.5444376,11.0630509 L24.5444376,21.6299845 C24.5444376,22.5934668 23.7616024,23.3763019 22.8031432,23.3763019 L12.0756547,23.3763019 C11.6963938,23.6996617 10.2795885,24.9075611 7.82523877,27 L7.82523877,23.3763019 L5.74631744,23.3763019 C4.78283516,23.3763019 4,22.5934668 4,21.6299845 L4,11.0630509 C4,10.0995686 4.78283516,9.31673339 5.74631749,9.31673339 L22.8031432,9.31673339 C23.7616025,9.31673339 24.5444376,10.0995686 24.5444376,11.0630509 Z" id="Shape" fill="#2C496B" fill-rule="nonzero"></path>
    </g>
</svg>