<svg xmlns="http://www.w3.org/2000/svg" width="16" height="16" viewBox="0 0 16 16">
    <g fill="#9BBCEA" fill-rule="evenodd">
        <path d="M7.022 12l1.362-1.555c-.725-.829-.7-2.074.06-2.871l3.191-3.347c.554-.58 1.472-.606 2.058-.057.579.544.608 1.454.064 2.034l-.008.008-1.114 1.168c.408.926.547 1.839.418 2.737l2.49-2.612c1.358-1.425 1.307-3.68-.114-5.041-1.426-1.367-3.685-1.335-5.072.071L7 5.941c-1.66 1.682-1.65 4.389.023 6.059z" transform="translate(-1 -1)"/>
        <path d="M10.978 6L9.616 7.555c.725.829.7 2.074-.06 2.871l-3.191 3.347c-.554.58-1.472.606-2.058.057-.579-.544-.608-1.454-.064-2.034l.008-.008 1.114-1.168c-.408-.926-.547-1.839-.418-2.737l-2.49 2.612c-1.358 1.425-1.307 3.68.114 5.041 1.426 1.367 3.685 1.335 5.072-.071L11 12.059c1.66-1.682 1.65-4.389-.023-6.059z" transform="translate(-1 -1)"/>
    </g>
</svg>
