<svg xmlns="http://www.w3.org/2000/svg" width="24" height="24" viewBox="0 0 24 24">
    <g fill="none" fill-rule="evenodd">
        <path fill="#90A4AE" d="M20 2H4c-1.1 0-2 .9-2 2v16c0 1.1.9 2 2 2h16c1.1 0 2-.9 2-2V4c0-1.1-.9-2-2-2z"/>
        <path fill="#FFF" fill-rule="nonzero" d="M18.028 16.667V7.139c0-.749-.613-1.361-1.361-1.361H7.139c-.749 0-1.361.612-1.361 1.36v9.529c0 .748.612 1.36 1.36 1.36h9.529c.748 0 1.36-.612 1.36-1.36zM9.52 12.924l1.701 2.048 2.382-3.07 3.063 4.084H7.139l2.382-3.062z"/>
    </g>
</svg>
