<svg xmlns="http://www.w3.org/2000/svg" width="35" height="35" viewBox="0 0 35 35">
    <path fill="#C1D3E6" fill-rule="nonzero" d="M27.333 6.7H21.76C21.2 5.134 19.733 4 18 4c-1.733 0-3.2 1.134-3.76 2.7H8.667C7.2 6.7 6 7.915 6 9.4v18.9C6 29.785 7.2 31 8.667 31h18.666C28.8 31 30 29.785 30 28.3V9.4c0-1.485-1.2-2.7-2.667-2.7zM18 6.7c.733 0 1.333.607 1.333 1.35 0 .742-.6 1.35-1.333 1.35a1.346 1.346 0 0 1-1.333-1.35c0-.743.6-1.35 1.333-1.35zm2.667 18.9h-9.334v-2.7h9.334v2.7zm4-5.4H11.333v-2.7h13.334v2.7zm0-5.4H11.333v-2.7h13.334v2.7z"/>
</svg>
