<svg xmlns="http://www.w3.org/2000/svg" width="24" height="24" viewBox="0 0 24 24">
    <path fill="#2C496B" fill-rule="nonzero" d="M17 9.5h-.786V7.929A3.93 3.93 0 0 0 12.286 4a3.93 3.93 0 0 0-3.929 3.929V9.5h-.786C6.707 9.5 6 10.207 6 11.071v7.858c0 .864.707 1.571 1.571 1.571H17c.864 0 1.571-.707 1.571-1.571V11.07c0-.864-.707-1.571-1.571-1.571zm-4.714 7.071A1.576 1.576 0 0 1 10.714 15c0-.864.707-1.571 1.572-1.571.864 0 1.571.707 1.571 1.571s-.707 1.571-1.571 1.571zM14.72 9.5H9.85V7.929a2.438 2.438 0 0 1 2.436-2.436 2.438 2.438 0 0 1 2.435 2.436V9.5z"/>
</svg>
