<?xml version="1.0" encoding="UTF-8" standalone="no"?>
<svg width="310px" height="284px" viewBox="0 0 310 284" version="1.1" xmlns="http://www.w3.org/2000/svg" xmlns:xlink="http://www.w3.org/1999/xlink">
    <!-- Generator: Sketch 48.2 (47327) - http://www.bohemiancoding.com/sketch -->
    <title>illustration_boardempty</title>
    <desc>Created with Sketch.</desc>
    <defs>
        <polygon id="path-1" points="0.124928621 0.135352113 302.105878 0.135352113 302.105878 283.802817 0.124928621 283.802817"></polygon>
        <polygon id="path-3" points="0 0.059558354 28.8107031 0.059558354 28.8107031 27.5013302 0 27.5013302"></polygon>
    </defs>
    <g id="Board_empty" stroke="none" stroke-width="1" fill="none" fill-rule="evenodd" transform="translate(-644.000000, -111.000000)">
        <g id="illustration_boardempty" transform="translate(630.000000, 97.000000)">
            <g id="emptyBoard" transform="translate(14.000000, 14.000000)">
                <g id="Group-3" transform="translate(7.859155, 0.000000)">
                    <mask id="mask-2" fill="white">
                        <use xlink:href="#path-1"></use>
                    </mask>
                    <g id="Clip-2"></g>
                    <path d="M27.91317,227.555609 C24.5306131,221.0145 27.2826627,216.023937 27.8525233,209.462088 C28.3639226,203.566085 25.0961027,198.917722 24.4180615,193.243303 C24.0946123,190.537352 24.5732297,187.764817 24.0651085,185.087246 C23.6121705,182.699482 22.4025143,180.532211 21.2108883,178.412968 C18.8850048,174.274905 16.5285248,170.095363 13.3044142,166.610592 C5.27500763,157.931683 -3.15324676,152.612563 1.41328702,139.154306 C4.63630483,129.655099 14.2988018,124.118761 20.6186267,116.324553 C28.5770056,106.511525 30.9968642,93.2704859 30.90125,80.6418063 C30.8050895,68.0131268 28.4819378,55.4908732 28.1683233,42.8654683 C27.9634357,34.6084437 28.7010309,26.0474225 32.6332328,18.7815246 C39.9184878,5.31726408 56.7138035,-0.578739437 72.0153524,0.203901408 C87.3169012,0.985996479 101.745356,7.11777465 116.162337,12.2977218 C130.579864,17.477669 146.032757,21.8231268 161.070957,18.8890423 C181.877151,14.8295704 200.648129,-2.8033169 221.325927,1.86633099 C234.072119,4.74474648 243.712761,16.0570176 247.530772,28.5410669 C251.34933,41.0251162 250.171363,54.5073873 247.477775,67.2806972 C245.82283,75.1338486 243.630806,83.439993 246.345703,90.9929683 C249.329412,99.2936549 257.510162,104.51781 265.581639,108.090996 C273.653662,111.664183 282.381326,114.362493 288.966685,120.237211 C297.730408,128.054887 301.225517,140.282968 301.983874,151.995838 C302.245037,156.025292 302.207884,160.199923 300.648007,163.92538 C298.524279,168.996718 293.881254,172.546437 289.158459,175.368092 C275.230477,183.688972 259.009939,187.785556 245.529431,196.811577 C234.364425,204.287599 225.436245,215.052458 220.158342,227.400609 C212.550184,245.203232 211.143836,267.785204 195.009077,278.505856 C185.572776,284.776261 173.093758,285.01531 162.274603,281.642968 C151.454901,278.269535 141.959592,271.688039 132.871327,264.923162 C124.284626,258.532141 115.812662,251.843127 106.209719,247.109623 C93.9738344,241.077722 80.1993808,238.427986 66.5560552,238.620099 C59.4565649,238.720521 52.304077,239.567563 45.2920054,238.458004 C38.2793874,237.347898 31.172248,233.856577 27.91317,227.555609" id="Fill-1" fill="#EAE6A7" opacity="0.100000001" mask="url(#mask-2)"></path>
                </g>
                <path d="M52.8309859,80.3439852 C51.627007,80.3439852 50.6478873,81.3244408 50.6478873,82.5300624 L50.6478873,200.399515 C50.6478873,201.60459 51.627007,202.585592 52.8309859,202.585592 L244.943662,202.585592 C246.147641,202.585592 247.126761,201.60459 247.126761,200.399515 L247.126761,82.5300624 C247.126761,81.3244408 246.147641,80.3439852 244.943662,80.3439852 L52.8309859,80.3439852 Z M244.943662,206.957746 L52.8309859,206.957746 C49.2195951,206.957746 46.2816901,204.015833 46.2816901,200.399515 L46.2816901,82.5300624 C46.2816901,78.9137443 49.2195951,75.971831 52.8309859,75.971831 L244.943662,75.971831 C248.555053,75.971831 251.492958,78.9137443 251.492958,82.5300624 L251.492958,200.399515 C251.492958,204.015833 248.555053,206.957746 244.943662,206.957746 Z" id="Fill-4" fill="#E6E6E6" opacity="0.300000012"></path>
                <rect id="Rectangle-41" fill="#FFFFFF" x="50.6478873" y="79.4647887" width="196.478873" height="122.253521"></rect>
                <path d="M61.1267606,86.4507042 C61.1267606,85.0040642 59.9542043,83.8309859 58.5070423,83.8309859 C57.0604023,83.8309859 55.8873239,85.0040642 55.8873239,86.4507042 C55.8873239,87.8973442 57.0604023,89.0704225 58.5070423,89.0704225 C59.9542043,89.0704225 61.1267606,87.8973442 61.1267606,86.4507042" id="Fill-6" fill="#E6E6E6" opacity="0.200000003"></path>
                <path d="M241.014085,86.4507042 C241.014085,85.0040642 239.841528,83.8309859 238.394366,83.8309859 C236.947726,83.8309859 235.774648,85.0040642 235.774648,86.4507042 C235.774648,87.8973442 236.947726,89.0704225 238.394366,89.0704225 C239.841528,89.0704225 241.014085,87.8973442 241.014085,86.4507042" id="Fill-8" fill="#E6E6E6" opacity="0.200000003"></path>
                <path d="M154.56338,48.028169 C154.56338,45.1345193 152.217593,42.7887324 149.323944,42.7887324 C146.430294,42.7887324 144.084507,45.1345193 144.084507,48.028169 C144.084507,50.9218187 146.430294,53.2676056 149.323944,53.2676056 C152.217593,53.2676056 154.56338,50.9218187 154.56338,48.028169" id="Fill-10" fill="#E6E6E6"></path>
                <polygon id="Fill-12" fill="#E6E6E6" opacity="0.200000003" points="56.5386462 88.1971831 55.8873239 86.6909784 148.907394 46.2816901 241.014085 86.6926198 240.357303 88.1960889 148.904664 48.0718469"></polygon>
                <path d="M52.8309859,79.4707458 C51.627007,79.4707458 50.6478873,80.4512014 50.6478873,81.6568229 L50.6478873,199.526276 C50.6478873,200.731351 51.627007,201.712353 52.8309859,201.712353 L244.943662,201.712353 C246.147641,201.712353 247.126761,200.731351 247.126761,199.526276 L247.126761,81.6568229 C247.126761,80.4512014 246.147641,79.4707458 244.943662,79.4707458 L52.8309859,79.4707458 Z M244.943662,206.084507 L52.8309859,206.084507 C49.2195951,206.084507 46.2816901,203.142594 46.2816901,199.526276 L46.2816901,81.6568229 C46.2816901,78.0405048 49.2195951,75.0985915 52.8309859,75.0985915 L244.943662,75.0985915 C248.555053,75.0985915 251.492958,78.0405048 251.492958,81.6568229 L251.492958,199.526276 C251.492958,203.142594 248.555053,206.084507 244.943662,206.084507 Z" id="Fill-14" fill="#EFBBA0"></path>
                <path d="M61.1267606,84.7042254 C61.1267606,83.2575854 59.9542043,82.084507 58.5070423,82.084507 C57.0604023,82.084507 55.8873239,83.2575854 55.8873239,84.7042254 C55.8873239,86.1508653 57.0604023,87.3239437 58.5070423,87.3239437 C59.9542043,87.3239437 61.1267606,86.1508653 61.1267606,84.7042254" id="Fill-16" fill="#E6E6E6"></path>
                <path d="M241.014085,84.7042254 C241.014085,83.2575854 239.841528,82.084507 238.394366,82.084507 C236.947726,82.084507 235.774648,83.2575854 235.774648,84.7042254 C235.774648,86.1508653 236.947726,87.3239437 238.394366,87.3239437 C239.841528,87.3239437 241.014085,86.1508653 241.014085,84.7042254" id="Fill-18" fill="#E6E6E6"></path>
                <path d="M154.56338,47.1549296 C154.56338,44.2612799 152.217593,41.915493 149.323944,41.915493 C146.430294,41.915493 144.084507,44.2612799 144.084507,47.1549296 C144.084507,50.0485793 146.430294,52.3943662 149.323944,52.3943662 C152.217593,52.3943662 154.56338,50.0485793 154.56338,47.1549296" id="Fill-20" fill="#EFBBA0"></path>
                <polygon id="Fill-22" fill="#EFBBA0" points="56.5386462 87.3239437 55.8873239 85.8177587 148.907394 45.4084507 241.014085 85.8194 240.357303 87.3228494 148.904664 47.1991312"></polygon>
                <polygon id="Fill-24" fill="#CCCCCC" points="24.2543182 144.084507 34.056338 152.816901 23.5774648 145.313287"></polygon>
                <g id="Group-28" transform="translate(0.000000, 123.126761)">
                    <mask id="mask-4" fill="white">
                        <use xlink:href="#path-3"></use>
                    </mask>
                    <g id="Clip-27"></g>
                    <path d="M22.6145255,14.3601383 L11.7897012,5.84499221 L8.8628827,0.059558354 L-0.000217486048,11.5016661 L6.28023588,12.958024 L16.8756124,21.2923581 C16.7744814,23.6193529 17.7471878,25.9589497 19.7072808,27.5013302 L28.8107031,15.7501985 C26.9870825,14.3157572 24.7067413,13.8807127 22.6145255,14.3601383" id="Fill-26" fill="#B9B3CA" mask="url(#mask-4)"></path>
                </g>
                <path d="M18.0518451,143.202138 L7.18079516,135.033106 L0.737493102,133.605634 L0,134.514855 L6.44330206,135.942328 L17.3149099,144.111359 C17.2105898,146.392201 18.2086043,148.685394 20.2202534,150.197183 L20.9577465,149.287961 C18.9460974,147.776172 17.947525,145.482979 18.0518451,143.202138" id="Fill-29" fill="#000000" opacity="0.100000001"></path>
                <path d="M7.85915493,133.315567 C8.16316506,132.575028 8.49802493,131.858094 8.87270901,131.173548 C9.22663962,130.471985 9.6411479,129.817632 10.027611,129.141869 L10.4712863,128.366197 L11.4966193,128.966204 L13.0368626,129.866488 C13.5484073,130.17006 14.0352722,130.503824 14.5350379,130.82112 L15.279358,131.30365 L16.0006809,131.817471 L17.4427659,132.844015 L18.8354912,133.93314 C19.3044072,134.291058 19.763227,134.661053 20.2057805,135.052457 C20.6511385,135.440019 21.1077146,135.812209 21.5429763,136.212946 L22.8392262,137.426683 L24.4507042,138.936307 L22.5638221,139.230546 C22.2844918,139.273913 21.9086859,139.390292 21.591775,139.508866 C21.2686941,139.638968 20.9388824,139.770717 20.6371159,139.939795 C20.3403975,140.113264 20.0548972,140.308692 19.8008075,140.550231 C19.5674714,140.799456 19.3459142,141.092598 19.2096144,141.464789 L19.041904,141.460397 C19.0576093,141.059112 19.1669857,140.665512 19.3560104,140.30979 C19.5512051,139.957361 19.8165129,139.651045 20.1076222,139.377117 C20.3981706,139.100993 20.7274215,138.870432 21.070134,138.664574 C21.4145292,138.460363 21.7667771,138.279209 22.1476312,138.130991 L22.1128551,138.359356 L16.4224809,134.15327 L10.7724919,129.895034 L10.9587121,129.872527 C9.98161681,131.063757 8.98320715,132.239068 7.99040654,133.418221 L7.85915493,133.315567 Z" id="Fill-31" fill="#000000" opacity="0.100000001"></path>
                <polygon id="Fill-33" fill="#CCCCCC" points="224.422535 231.613622 213.070423 237.521127 223.59756 230.535211"></polygon>
                <path d="M230.831263,232.43792 L242.558849,225.796377 L248.873239,225.282186 L241.855851,213.070423 L238.196318,218.204723 L226.717848,224.706031 C224.655939,223.758637 222.180663,223.776031 220.056338,224.97889 L227.263164,237.521127 C229.238567,236.402517 230.483049,234.50338 230.831263,232.43792" id="Fill-35" fill="#D9D198"></path>
                <path d="M227.395448,225.89193 L239.046549,219.290473 L242.760563,214.076096 L242.183149,213.070423 L238.469135,218.2848 L226.818034,224.886808 C224.724559,223.92474 222.212611,223.942403 220.056338,225.163893 L220.633752,226.169014 C222.790026,224.947524 225.301973,224.929861 227.395448,225.89193" id="Fill-37" fill="#000000" opacity="0.100000001"></path>
                <path d="M239.250073,220.929577 C239.806072,221.453187 240.329557,221.99487 240.808605,222.559943 C241.310955,223.11279 241.747193,223.701253 242.214319,224.273768 L242.760563,224.944094 L241.835524,225.626647 L240.482918,226.625492 C240.030423,226.955074 239.55842,227.25276 239.097255,227.567989 L238.400359,228.032593 L237.684497,228.466365 L236.253313,229.332314 L234.782029,230.132347 C234.295394,230.405581 233.800631,230.664994 233.292861,230.90208 C232.786718,231.142887 232.290871,231.400173 231.77714,231.627691 L230.228905,232.297486 L228.244432,233.15493 L228.682295,231.392731 C228.744615,231.140229 228.777671,230.776626 228.786884,230.464587 C228.787967,230.142447 228.790135,229.812866 228.749492,229.494447 C228.703429,229.179218 228.634065,228.865053 228.512677,228.559924 C228.376116,228.270742 228.197286,227.974119 227.915493,227.721617 L227.981064,227.575963 C228.332763,227.733843 228.645987,227.968803 228.895265,228.259048 C229.140209,228.552482 229.317955,228.890037 229.458851,229.237161 C229.60029,229.585348 229.688079,229.950546 229.749315,230.317338 C229.807841,230.686257 229.843065,231.052518 229.83873,231.432068 L229.643101,231.317778 L235.431779,227.956045 L241.252971,224.650129 L241.204741,224.821299 C240.493214,223.556662 239.803363,222.280331 239.107551,221.007189 L239.250073,220.929577 Z" id="Fill-39" fill="#000000" opacity="0.100000001"></path>
                <path d="M53.2676056,231.990825 C54.7763182,227.643855 62.9069991,227.325477 67.441375,226.42004 C71.9752017,225.51515 77.3191307,223.678609 78.2912535,219.183099 C77.9430468,228.882414 84.3749844,237.394503 90.7223418,244.767424 C92.3073961,246.608333 93.9759322,248.580853 94.3098592,250.980971 C88.2420557,249.118218 81.8535067,252.785291 77.240592,257.125163 C75.5775481,258.690837 73.6453855,260.500072 71.3760006,260.190432 C69.3477242,259.914105 67.9851047,258.045344 66.8685366,256.339322 C63.4007495,251.042134 59.934061,245.745493 56.4668232,240.447758 C54.7977378,237.897463 53.0578029,235.07357 53.3917298,232.048166" id="Fill-41" fill="#E6E6E6"></path>
                <path d="M45.4084507,235.963299 C45.758218,231.421826 53.539306,229.083476 57.6925872,227.082653 C61.8464176,225.08183 66.5449406,221.986748 66.3373864,217.43662 C68.4766227,226.815985 76.8688426,233.362608 84.8882335,238.838772 C86.8912967,240.206732 89.0080206,241.679086 89.943662,243.895732 C83.6006285,243.627982 78.3590601,248.737951 75.0063452,254.05022 C73.7972594,255.965579 72.3910519,258.181684 70.1172896,258.452138 C68.085674,258.694466 66.290165,257.24537 64.7752386,255.889852 C60.0701266,251.682119 55.3655637,247.473846 50.6604517,243.265573 C48.3954748,241.239868 45.9921284,238.969131 45.5435257,235.98764" id="Fill-43" fill="#F1B4C3"></path>
            </g>
        </g>
    </g>
</svg>