<svg xmlns="http://www.w3.org/2000/svg" xmlns:xlink="http://www.w3.org/1999/xlink" width="24" height="24" viewBox="0 0 24 24">
    <defs>
        <path id="a" d="M.238 0h16.514v16.657H.238z"/>
    </defs>
    <g fill="none" fill-rule="evenodd">
        <g transform="translate(5.182 3.75)">
            <mask id="b" fill="#fff">
                <use xlink:href="#a"/>
            </mask>
            <path fill="#546E7A" d="M15.573 0H1.418C.768 0 .238.535.238 1.19v14.277c0 .654.53 1.19 1.18 1.19h14.155c.648 0 1.18-.536 1.18-1.19V1.19c0-.655-.532-1.19-1.18-1.19" mask="url(#b)"/>
        </g>
        <path fill="#FFF" d="M13.677 7.022c1.463 0 2.654 1.201 2.654 2.677 0 1.475-1.191 2.677-2.654 2.677-1.462 0-2.654-1.202-2.654-2.677 0-1.476 1.192-2.677 2.654-2.677M18.985 18.027H8.37v-.892c0-1.785 3.539-2.677 5.308-2.677 1.77 0 5.308.892 5.308 2.677v.892z"/>
        <path fill="#546E7A" d="M2.25 7.933h2.47V6.707H2.25zM2.25 12.692h2.47v-1.226H2.25zM2.25 17.451h2.47v-1.226H2.25z"/>
    </g>
</svg>
