<svg xmlns="http://www.w3.org/2000/svg" width="139" height="126" viewBox="0 0 139 126">
    <g fill="none" fill-rule="evenodd">
        <path fill="#D5E5F6" fill-opacity=".2" d="M93.53 27.122c-4.669-1.894-6.007-5.7-4.014-11.416 1.993-5.717.951-10.032-3.125-12.945-7.452-3.681-16.748-3.681-27.888 0-16.71 5.523-34.365 20.145-45.407 38.48-11.042 18.334-10.91 30.098-8.94 35.668 1.97 5.57 8.152 15.784 17.94 19.762 6.525 2.652 10.835 8.353 12.929 17.104 3.104 11.003 11.43 14.098 24.977 9.283 20.322-7.221 45.721-29.876 58.549-50.207 12.827-20.33 12.163-33.51 3.454-43.293-1.066-1.132-7.663-5.987-18.545-2.436-.032-.05-1.552.652-5.026.652-1.915 0-3.549-.218-4.903-.652z"/>
        <path fill="#EDEDED" d="M7.131 24.425h110.994a4 4 0 0 1 4 4v12.588H3.131V28.425a4 4 0 0 1 4-4z"/>
        <path fill="#FFF" stroke="#EDEDED" d="M3.607 42.193L.767 98.26a4.5 4.5 0 0 0 4.517 4.727l105.895-.543c5.778-.03 10.446-4.721 10.446-10.5V42.194H3.607z"/>
        <path fill="#FFF" stroke="#EDEDED" d="M3.631 42.193v60.454a3.5 3.5 0 0 0 3.5 3.5h110.994a3.5 3.5 0 0 0 3.5-3.5V42.193H3.631z"/>
        <path fill="#EDEDED" d="M36.11 85.872a5.1 5.1 0 1 1 0 10.2 5.1 5.1 0 0 1 0-10.2zm-17.68 0a5.1 5.1 0 1 1 0 10.2 5.1 5.1 0 0 1 0-10.2zm35.359-.004a5.1 5.1 0 1 1 0 10.2 5.1 5.1 0 0 1 0-10.2zM36.027 68.891a5.097 5.097 0 1 1 0 10.193 5.097 5.097 0 0 1 0-10.193zm-17.596-.018a5.1 5.1 0 1 1 0 10.2 5.1 5.1 0 0 1 0-10.2zm88.395 0a5.1 5.1 0 1 1 0 10.2 5.1 5.1 0 0 1 0-10.2zm-53.037-.002a5.1 5.1 0 1 1 0 10.2 5.1 5.1 0 0 1 0-10.2zm17.679 0a5.1 5.1 0 1 1 0 10.2 5.1 5.1 0 0 1 0-10.2zm17.679 0a5.1 5.1 0 1 1 0 10.2 5.1 5.1 0 0 1 0-10.2zM36.027 52.02a5.097 5.097 0 1 1 0 10.193 5.097 5.097 0 0 1 0-10.193zm-17.574 0a5.097 5.097 0 1 1 0 10.193 5.097 5.097 0 0 1 0-10.193zm35.336-.146a5.1 5.1 0 1 1 0 10.2 5.1 5.1 0 0 1 0-10.2zm17.679 0a5.1 5.1 0 1 1 0 10.2 5.1 5.1 0 0 1 0-10.2zm17.679 0a5.1 5.1 0 1 1 0 10.2 5.1 5.1 0 0 1 0-10.2zm17.679 0a5.1 5.1 0 1 1 0 10.2 5.1 5.1 0 0 1 0-10.2z"/>
        <path stroke="#FFF" d="M3.76 42.004h117.733"/>
        <g>
            <path fill="#FF5252" fill-rule="nonzero" d="M123.946 16.122c-8.298 0-15.032 6.734-15.032 15.031 0 8.298 6.734 15.032 15.032 15.032 8.297 0 15.03-6.734 15.03-15.032 0-8.297-6.733-15.03-15.03-15.03zm1.503 22.547h-3.007v-3.006h3.007v3.006zm0-6.012h-3.007v-9.02h3.007v9.02z"/>
        </g>
    </g>
</svg>
