<svg xmlns="http://www.w3.org/2000/svg" width="24" height="24" viewBox="0 0 24 24">
    <path fill="#2C496B" fill-rule="nonzero" d="M18.32 14.711a3.661 3.661 0 0 0-2.87 1.397l-6.241-3.165c.081-.303.14-.615.14-.943 0-.358-.07-.695-.167-1.023l6.213-3.15a3.661 3.661 0 0 0 2.926 1.46c2.032 0 3.676-1.63 3.676-3.644C21.997 3.631 20.353 2 18.32 2c-2.028 0-3.674 1.631-3.674 3.643 0 .33.059.643.142.946l-6.24 3.165a3.669 3.669 0 0 0-2.875-1.4C3.644 8.355 2 9.988 2 12c0 2.012 1.643 3.643 3.674 3.643a3.67 3.67 0 0 0 2.929-1.462l6.21 3.15a3.572 3.572 0 0 0-.168 1.025c0 2.013 1.646 3.644 3.674 3.644 2.032 0 3.676-1.631 3.676-3.644 0-2.014-1.643-3.645-3.675-3.645z"/>
</svg>
