<?xml version="1.0" encoding="UTF-8"?>
<svg width="32px" height="32px" viewBox="0 0 32 32" version="1.1" xmlns="http://www.w3.org/2000/svg" xmlns:xlink="http://www.w3.org/1999/xlink">
    <!-- Generator: Sketch 51.3 (57544) - http://www.bohemiancoding.com/sketch -->
    <title>chat_icn active</title>
    <desc>Created with Sketch.</desc>
    <defs></defs>
    <g id="chat_icn-active" stroke="none" stroke-width="1" fill="none" fill-rule="evenodd">
        <g id="chat_icn" opacity="0.300000012"></g>
        <g id="Group" transform="translate(4.000000, 5.000000)" fill="#FFFFFF" fill-rule="nonzero">
            <path d="M22.2536825,0 L5.20187987,0 C4.23839754,0 3.45556238,0.782835159 3.45556238,1.7463481 L3.45556238,3.31306642 L18.8030819,3.31306642 C20.3166224,3.31306642 21.5481352,4.54678446 21.5481352,6.06302027 L21.5481352,14.0645917 L22.2536825,14.0645917 C23.2171648,14.0645916 24,13.2817565 24,12.3182742 L24,1.7463481 C24,0.782835159 23.2171648,0 22.2536825,0 Z" id="Shape"></path>
            <path d="M20.5444376,6.06305088 L20.5444376,16.6299845 C20.5444376,17.5934668 19.7616024,18.3763019 18.8031432,18.3763019 L8.07565473,18.3763019 C7.69639385,18.6996617 6.27958853,19.9075611 3.82523877,22 L3.82523877,18.3763019 L1.74631744,18.3763019 C0.782835159,18.3763019 0,17.5934668 0,16.6299845 L0,6.06305088 C0,5.09956855 0.782835159,4.31673339 1.74631749,4.31673339 L18.8031432,4.31673339 C19.7616025,4.31673339 20.5444376,5.09956855 20.5444376,6.06305088 Z" id="Shape"></path>
        </g>
    </g>
</svg>