<svg xmlns="http://www.w3.org/2000/svg" width="24" height="24" viewBox="0 0 24 24">
    <g fill="none" fill-rule="evenodd">
        <path fill="#2C496B" d="M13.177 8.07H18.8c.223 0 .304.022.385.066a.454.454 0 0 1 .19.189c.043.081.066.162.066.385v10.227c0 .223-.023.304-.067.385a.454.454 0 0 1-.189.19c-.081.043-.162.066-.385.066h-5.623c-.223 0-.304-.023-.385-.067a.454.454 0 0 1-.19-.189c-.043-.081-.066-.162-.066-.385V8.71c0-.223.023-.304.067-.385a.454.454 0 0 1 .189-.19c.081-.043.162-.066.385-.066zm1.214 8.439c-.112 0-.152.012-.193.033a.227.227 0 0 0-.094.095c-.022.04-.034.081-.034.192v.894c0 .111.012.152.034.193.022.04.053.072.094.094.041.022.081.033.193.033h3.195c.112 0 .152-.011.193-.033a.227.227 0 0 0 .094-.094c.022-.041.034-.082.034-.193v-.894c0-.111-.012-.151-.034-.192a.227.227 0 0 0-.094-.095c-.041-.021-.081-.033-.193-.033h-3.195zM4.64 5h5.623c.223 0 .304.023.386.067a.454.454 0 0 1 .189.189c.043.081.066.162.066.385v10.227c0 .223-.023.304-.066.385a.454.454 0 0 1-.19.19c-.08.043-.162.066-.385.066H4.641c-.223 0-.304-.023-.385-.067a.454.454 0 0 1-.19-.189c-.043-.081-.066-.162-.066-.385V5.641c0-.223.023-.304.067-.385a.454.454 0 0 1 .189-.19C4.337 5.024 4.418 5 4.64 5zm1.214 1.535c-.111 0-.152.011-.193.033a.227.227 0 0 0-.094.094c-.022.041-.033.082-.033.193v.894c0 .111.011.151.033.192.022.04.054.073.094.095.041.021.082.033.193.033H9.05c.112 0 .152-.012.193-.033a.227.227 0 0 0 .094-.095c.022-.04.034-.081.034-.192v-.894c0-.111-.012-.152-.034-.193a.227.227 0 0 0-.094-.094c-.04-.022-.081-.033-.193-.033H5.855z"/>
        <g transform="translate(8.7 9.028)">
            <circle cx="3.357" cy="3.357" r="3.357" fill="#FFF" stroke="#FFF" stroke-width=".5"/>
            <path fill="#2C496B" fill-rule="nonzero" d="M5.755 2.821H3.927l.738-.76c-.736-.728-1.928-.755-2.664-.027a1.854 1.854 0 0 0 0 2.64c.736.73 1.928.73 2.664 0 .367-.362.55-.785.55-1.319h.54c0 .534-.238 1.227-.712 1.696a2.441 2.441 0 0 1-3.43 0 2.383 2.383 0 0 1-.005-3.392 2.423 2.423 0 0 1 3.41 0l.737-.757v1.92z"/>
        </g>
    </g>
</svg>
