<svg xmlns="http://www.w3.org/2000/svg" width="24" height="24" viewBox="0 0 24 24">
    <g fill="none" fill-rule="evenodd">
        <path stroke="#43484E" stroke-width="2" d="M15 10a3 3 0 1 0 0-6 3 3 0 0 0 0 6z"/>
        <path fill="#FFF" fill-rule="nonzero" d="M22 17.243C22 14.899 18.866 13 15 13s-7 1.9-7 4.243c0 2.343 14 2.343 14 0z"/>
        <path stroke="#FFF" d="M22.5 17.243c0 3.01-15 3.01-15 0 0-2.686 3.394-4.743 7.5-4.743s7.5 2.057 7.5 4.743z"/>
        <path stroke="#43484E" stroke-width="2" d="M20.992 17.087C20.835 15.487 18.28 14 15 14s-5.835 1.487-5.992 3.087c.024.017.055.036.091.057.272.156.72.31 1.306.44 1.197.268 2.858.416 4.595.416 1.737 0 3.398-.148 4.595-.415.586-.131 1.034-.285 1.306-.44.036-.022.067-.041.091-.058z"/>
        <g fill="#2D7DD2" fill-rule="nonzero">
            <path d="M4.897 12.127H2.102a1.102 1.102 0 0 1 0-2.203h2.795V7.103a1.103 1.103 0 1 1 2.205 0v2.82h2.796a1.102 1.102 0 1 1 0 2.203H7.103v2.771a1.103 1.103 0 1 1-2.205 0v-2.77h-.001z"/>
        </g>
    </g>
</svg>
