<svg xmlns="http://www.w3.org/2000/svg" width="32" height="32" viewBox="0 0 32 32">
    <g fill="none" fill-rule="evenodd">
        <circle cx="16" cy="16" r="16" fill="#ff5252" fill-rule="nonzero"/>
        <g fill="#FFF" transform="translate(6 6)">
            <path d="M3.613 15.304c-.974.285-1.997-.263-2.3-1.232l-.384-1.224c-.524-1.674.332-3.468 1.963-4.114L6.078 7.47l3.306-4.05c.174-.214.49-.246.703-.071.077.063.134.148.163.243l3.12 10.36c.08.265-.07.544-.334.624-.08.024-.165.028-.247.01l-4.835-1.016-.952.383.927 3.02c.297.967-.2 1.999-1.142 2.37-.863.34-1.838-.085-2.178-.948-.013-.034-.026-.068-.037-.102l-.959-2.99z"/>
            <rect width="7" height="2" x="12.803" y="6" rx="1" transform="rotate(-23 16.303 7)"/>
            <rect width="6" height="2" x="13.803" y="11" rx="1" transform="rotate(10 16.803 12)"/>
            <rect width="6" height="2" x="10.803" y="2" rx="1" transform="rotate(-46 13.803 3)"/>
        </g>
    </g>
</svg>
