<svg xmlns="http://www.w3.org/2000/svg" xmlns:xlink="http://www.w3.org/1999/xlink" width="24" height="24" viewBox="0 0 24 24">
    <defs>
        <path id="a" d="M7.01.39a3.51 3.51 0 0 1 3.506 3.505A3.51 3.51 0 0 1 7.01 7.4a3.51 3.51 0 0 1-3.506-3.505A3.51 3.51 0 0 1 7.011.389z"/>
        <path id="b" d="M14.021 14.8H0v-1.168c0-2.337 4.674-3.506 7.01-3.506 2.337 0 7.011 1.169 7.011 3.506V14.8z"/>
        <path id="c" d="M7.01.39a3.51 3.51 0 0 1 3.506 3.505A3.51 3.51 0 0 1 7.01 7.4a3.51 3.51 0 0 1-3.506-3.505A3.51 3.51 0 0 1 7.011.389z"/>
        <path id="d" d="M14.021 14.8H0v-1.168c0-2.337 4.674-3.506 7.01-3.506 2.337 0 7.011 1.169 7.011 3.506V14.8z"/>
    </defs>
    <g fill="none" fill-rule="evenodd">
        <g transform="translate(6.895 4.5)">
            <use fill="#2C496B" xlink:href="#a"/>
            <path stroke="#FFF" stroke-width="1.5" d="M7.01-.36a4.26 4.26 0 0 1 4.256 4.255A4.26 4.26 0 0 1 7.01 8.15a4.26 4.26 0 0 1-4.256-4.255A4.26 4.26 0 0 1 7.011-.361z"/>
        </g>
        <g transform="translate(6.895 4.5)">
            <use fill="#2C496B" xlink:href="#b"/>
            <path stroke="#FFF" stroke-width="1.5" d="M14.771 15.55H-.75v-1.918c0-2.589 4.167-4.256 7.76-4.256 3.594 0 7.761 1.667 7.761 4.256v1.918z"/>
        </g>
        <g>
            <g transform="translate(3 4.5)">
                <use fill="#2C496B" xlink:href="#c"/>
                <path stroke="#FFF" stroke-width="1.5" d="M7.01-.36a4.26 4.26 0 0 1 4.256 4.255A4.26 4.26 0 0 1 7.01 8.15a4.26 4.26 0 0 1-4.256-4.255A4.26 4.26 0 0 1 7.011-.361z"/>
            </g>
            <g transform="translate(3 4.5)">
                <use fill="#2C496B" xlink:href="#d"/>
                <path stroke="#FFF" stroke-width="1.5" d="M14.771 15.55H-.75v-1.918c0-2.589 4.167-4.256 7.76-4.256 3.594 0 7.761 1.667 7.761 4.256v1.918z"/>
            </g>
        </g>
    </g>
</svg>
