<svg xmlns="http://www.w3.org/2000/svg" xmlns:xlink="http://www.w3.org/1999/xlink" width="32" height="32" viewBox="0 0 32 32">
    <defs>
        <path id="a" d="M.006.093H23.96v6.462H.006z"/>
    </defs>
    <g fill="none" fill-rule="evenodd">
        <path fill="#2C496B" d="M15.449 18.679a.802.802 0 0 0 1.062 0c.193-.17 4.71-4.197 4.71-8.374a5.249 5.249 0 0 0-5.241-5.243 5.249 5.249 0 0 0-5.242 5.243c0 4.177 4.518 8.204 4.71 8.374zm.53-9.744c.751 0 1.36.614 1.36 1.37 0 .757-.609 1.37-1.36 1.37-.75 0-1.358-.613-1.358-1.37 0-.756.608-1.37 1.359-1.37z"/>
        <path fill="#2C496B" d="M26.052 18.676l-.607-2.128a.804.804 0 0 0-.773-.583h-4.334a20.052 20.052 0 0 1-3.083 3.559 1.928 1.928 0 0 1-2.55 0 20.1 20.1 0 0 1-3.084-3.559H7.288a.805.805 0 0 0-.774.583l-.723 2.536 16.177 2.964 4.084-3.372z"/>
        <g transform="translate(4 19.723)">
            <mask id="b" fill="#fff">
                <use xlink:href="#a"/>
            </mask>
            <path fill="#2C496B" d="M23.929 5.53L22.377.093 14.68 6.555h8.476a.804.804 0 0 0 .773-1.025zM3.936.9L1.481.45.03 5.53a.805.805 0 0 0 .773 1.024h3.132V.9z" mask="url(#b)"/>
        </g>
        <path fill="#2C496B" d="M9.062 20.828v5.45h7.868l3.919-3.29z"/>
    </g>
</svg>
