<svg xmlns="http://www.w3.org/2000/svg" width="19" height="19" viewBox="0 0 19 19">
    <g fill="#4A90E2" fill-rule="evenodd" opacity=".5">
        <path fill-rule="nonzero" d="M12.031 4.26a3.922 3.922 0 0 1-3.927 3.927A3.922 3.922 0 0 1 4.177 4.26 3.922 3.922 0 0 1 8.104.333a3.922 3.922 0 0 1 3.927 3.927z"/>
        <path d="M9.551 10.787a5.393 5.393 0 0 0-.634 2.546c0 .987.263 1.912.724 2.709H.25v-1.31c0-2.617 5.236-4.057 7.854-4.057.425 0 .918.038 1.447.112z"/>
        <path fill-rule="nonzero" d="M14.832 8.865l-4.155 1.846v2.77c0 2.563 1.773 4.959 4.155 5.54 2.382-.581 4.155-2.977 4.155-5.54v-2.77l-4.155-1.846zm0 5.073h3.232c-.245 1.902-1.515 3.597-3.232 4.128v-4.123H11.6V11.31l3.232-1.435v4.062z"/>
    </g>
</svg>
