<svg xmlns="http://www.w3.org/2000/svg" xmlns:xlink="http://www.w3.org/1999/xlink" width="24" height="24" viewBox="0 0 24 24">
    <defs>
        <path id="a" d="M.003 0H16v19.197H.003z"/>
    </defs>
    <g fill="none" fill-rule="evenodd">
        <g transform="matrix(1 0 0 -1 4 21.2)">
            <path fill="#2ECC71" d="M2.4 15.2H.8L4 18.4v-1.6c0-.882-.718-1.6-1.6-1.6"/>
            <mask id="b" fill="#fff">
                <use xlink:href="#a"/>
            </mask>
            <path fill="#2ECC71" d="M8 7.199a1.6 1.6 0 1 1 0 3.2 1.6 1.6 0 0 1 0-3.2" mask="url(#b)"/>
            <path fill="#2ECC71" d="M13.6 9.6l-1.757.251c-.09.327-.219.634-.383.922l1.065 1.421-1.13 1.132-1.422-1.066a3.937 3.937 0 0 1-.922.383L8.8 14.4H7.2l-.251-1.757a3.94 3.94 0 0 1-.922-.383l-1.421 1.066-1.132-1.132 1.066-1.42a3.958 3.958 0 0 1-.383-.923L2.4 9.6V8l1.757-.25c.09-.328.219-.635.383-.923L3.474 5.406l1.132-1.131 1.42 1.065c.288-.164.596-.293.923-.383l.25-1.757h1.6l.252 1.757c.327.09.634.219.922.383l1.421-1.065 1.131 1.13-1.065 1.422c.164.288.293.595.383.922L13.6 8v1.6zm.8-9.6H1.6A1.6 1.6 0 0 0 0 1.6v12.8h2.4a2.4 2.4 0 0 1 2.4 2.4v2.4h9.6a1.6 1.6 0 0 0 1.6-1.6v-16A1.6 1.6 0 0 0 14.4 0z" mask="url(#b)"/>
        </g>
    </g>
</svg>
